League Mono-Regular.ufo
<glyph name="exclam" format="1">
  <advance width="600"/>
  <unicode hex="0021"/>
  <outline>
    <contour>
      <point x="334" y="-11"/>
      <point x="364" y="19"/>
      <point x="364" y="57" type="curve" smooth="yes"/>
      <point x="364" y="94"/>
      <point x="334" y="124"/>
      <point x="296" y="124" type="curve" smooth="yes"/>
      <point x="258" y="124"/>
      <point x="228" y="94"/>
      <point x="228" y="57" type="curve" smooth="yes"/>
      <point x="228" y="19"/>
      <point x="258" y="-11"/>
      <point x="296" y="-11" type="curve" smooth="yes"/>
    </contour>
    <contour>
      <point x="337" y="205" type="line"/>
      <point x="347" y="700" type="line"/>
      <point x="244" y="700" type="line"/>
      <point x="254" y="205" type="line"/>
    </contour>
  </outline>
</glyph>
<glyph name="numbersign" format="1">
  <advance width="600"/>
  <unicode hex="0023"/>
  <outline>
    <contour>
      <point x="181" y="700" type="line"/>
      <point x="100" y="0" type="line"/>
      <point x="190" y="0" type="line"/>
      <point x="271" y="700" type="line"/>
    </contour>
    <contour>
      <point x="397" y="700" type="line"/>
      <point x="316" y="0" type="line"/>
      <point x="406" y="0" type="line"/>
      <point x="487" y="700" type="line"/>
    </contour>
    <contour>
      <point x="18" y="181" type="line"/>
      <point x="524" y="181" type="line"/>
      <point x="534" y="263" type="line"/>
      <point x="28" y="263" type="line"/>
    </contour>
    <contour>
      <point x="51" y="426" type="line"/>
      <point x="557" y="426" type="line"/>
      <point x="567" y="508" type="line"/>
      <point x="61" y="508" type="line"/>
    </contour>
  </outline>
</glyph>
<glyph name="dollar" format="1">
  <advance width="600"/>
  <unicode hex="0024"/>
  <outline>
    <contour>
      <point x="264" y="-130" type="line"/>
      <point x="339" y="-130" type="line"/>
      <point x="339" y="800" type="line"/>
      <point x="264" y="800" type="line"/>
    </contour>
    <contour>
      <point x="240" y="429"/>
      <point x="158" y="458"/>
      <point x="158" y="530" type="curve" smooth="yes"/>
      <point x="158" y="613"/>
      <point x="247" y="623"/>
      <point x="304" y="623" type="curve" smooth="yes"/>
      <point x="368" y="623"/>
      <point x="429" y="593"/>
      <point x="452" y="540" type="curve"/>
      <point x="539" y="585" type="line"/>
      <point x="494" y="675"/>
      <point x="403" y="706"/>
      <point x="314" y="706" type="curve" smooth="yes"/>
      <point x="206" y="706"/>
      <point x="69" y="667"/>
      <point x="69" y="530" type="curve" smooth="yes"/>
      <point x="69" y="387"/>
      <point x="223" y="341"/>
      <point x="293" y="317" type="curve" smooth="yes"/>
      <point x="359" y="294"/>
      <point x="461" y="275"/>
      <point x="461" y="187" type="curve" smooth="yes"/>
      <point x="461" y="92"/>
      <point x="373" y="72"/>
      <point x="293" y="72" type="curve" smooth="yes"/>
      <point x="209" y="72"/>
      <point x="153" y="105"/>
      <point x="130" y="155" type="curve"/>
      <point x="43" y="110" type="line"/>
      <point x="88" y="20"/>
      <point x="184" y="-11"/>
      <point x="293" y="-11" type="curve" smooth="yes"/>
      <point x="414" y="-11"/>
      <point x="549" y="38"/>
      <point x="549" y="187" type="curve" smooth="yes"/>
      <point x="549" y="339"/>
      <point x="377" y="380"/>
      <point x="293" y="410" type="curve" smooth="yes"/>
    </contour>
  </outline>
</glyph>
<glyph name="percent" format="1">
  <advance width="600"/>
  <unicode hex="0025"/>
  <outline>
    <contour>
      <point x="454" y="700" type="line"/>
      <point x="52" y="0" type="line"/>
      <point x="152" y="0" type="line"/>
      <point x="554" y="700" type="line"/>
    </contour>
    <contour>
      <point x="228" y="426"/>
      <point x="282" y="460"/>
      <point x="282" y="557" type="curve" smooth="yes"/>
      <point x="282" y="653"/>
      <point x="228" y="687"/>
      <point x="165" y="687" type="curve" smooth="yes"/>
      <point x="102" y="687"/>
      <point x="48" y="653"/>
      <point x="48" y="557" type="curve" smooth="yes"/>
      <point x="48" y="460"/>
      <point x="102" y="426"/>
      <point x="165" y="426" type="curve" smooth="yes"/>
    </contour>
    <contour>
      <point x="143" y="492"/>
      <point x="123" y="508"/>
      <point x="123" y="557" type="curve" smooth="yes"/>
      <point x="123" y="605"/>
      <point x="143" y="621"/>
      <point x="165" y="621" type="curve" smooth="yes"/>
      <point x="187" y="621"/>
      <point x="207" y="605"/>
      <point x="207" y="557" type="curve" smooth="yes"/>
      <point x="207" y="508"/>
      <point x="187" y="492"/>
      <point x="165" y="492" type="curve" smooth="yes"/>
    </contour>
    <contour>
      <point x="510" y="6"/>
      <point x="564" y="40"/>
      <point x="564" y="137" type="curve" smooth="yes"/>
      <point x="564" y="233"/>
      <point x="510" y="267"/>
      <point x="447" y="267" type="curve" smooth="yes"/>
      <point x="384" y="267"/>
      <point x="330" y="233"/>
      <point x="330" y="137" type="curve" smooth="yes"/>
      <point x="330" y="40"/>
      <point x="384" y="6"/>
      <point x="447" y="6" type="curve" smooth="yes"/>
    </contour>
    <contour>
      <point x="425" y="72"/>
      <point x="405" y="88"/>
      <point x="405" y="137" type="curve" smooth="yes"/>
      <point x="405" y="185"/>
      <point x="425" y="201"/>
      <point x="447" y="201" type="curve" smooth="yes"/>
      <point x="469" y="201"/>
      <point x="489" y="185"/>
      <point x="489" y="137" type="curve" smooth="yes"/>
      <point x="489" y="88"/>
      <point x="469" y="72"/>
      <point x="447" y="72" type="curve" smooth="yes"/>
    </contour>
  </outline>
</glyph>
<glyph name="ampersand" format="1">
  <advance width="600"/>
  <unicode hex="0026"/>
  <outline>
    <contour>
      <point x="340" y="-8"/>
      <point x="407" y="21"/>
      <point x="431" y="40" type="curve"/>
      <point x="454" y="0" type="line"/>
      <point x="548" y="0" type="line"/>
      <point x="490" y="93" type="line"/>
      <point x="518" y="127"/>
      <point x="544" y="178"/>
      <point x="544" y="290" type="curve" smooth="yes"/>
      <point x="544" y="293" type="line"/>
      <point x="460" y="293" type="line"/>
      <point x="460" y="290" type="line" smooth="yes"/>
      <point x="460" y="223"/>
      <point x="454" y="183"/>
      <point x="444" y="167" type="curve"/>
      <point x="310" y="377" type="line"/>
      <point x="372" y="428"/>
      <point x="418" y="482"/>
      <point x="418" y="569" type="curve" smooth="yes"/>
      <point x="418" y="656"/>
      <point x="363" y="706"/>
      <point x="274" y="706" type="curve" smooth="yes"/>
      <point x="185" y="706"/>
      <point x="113" y="651"/>
      <point x="119" y="565" type="curve" smooth="yes"/>
      <point x="124" y="496"/>
      <point x="155" y="465"/>
      <point x="199" y="401" type="curve"/>
      <point x="118" y="346"/>
      <point x="59" y="266"/>
      <point x="59" y="185" type="curve" smooth="yes"/>
      <point x="59" y="68"/>
      <point x="143" y="-8"/>
      <point x="274" y="-8" type="curve" smooth="yes"/>
    </contour>
    <contour>
      <point x="198" y="77"/>
      <point x="149" y="122"/>
      <point x="149" y="184" type="curve" smooth="yes"/>
      <point x="149" y="244"/>
      <point x="186" y="288"/>
      <point x="243" y="330" type="curve"/>
      <point x="387" y="108" type="line"/>
      <point x="377" y="99"/>
      <point x="339" y="77"/>
      <point x="269" y="77" type="curve" smooth="yes"/>
    </contour>
    <contour>
      <point x="233" y="487"/>
      <point x="204" y="522"/>
      <point x="204" y="568" type="curve" smooth="yes"/>
      <point x="204" y="606"/>
      <point x="234" y="630"/>
      <point x="274" y="630" type="curve" smooth="yes"/>
      <point x="315" y="630"/>
      <point x="338" y="607"/>
      <point x="338" y="566" type="curve" smooth="yes"/>
      <point x="338" y="523"/>
      <point x="313" y="488"/>
      <point x="266" y="442" type="curve"/>
    </contour>
  </outline>
</glyph>
<glyph name="quotesingle" format="1">
  <advance width="600"/>
  <unicode hex="0027"/>
  <outline>
    <contour>
      <point x="268" y="523" type="line"/>
      <point x="331" y="523" type="line"/>
      <point x="347" y="757" type="line"/>
      <point x="252" y="757" type="line"/>
    </contour>
  </outline>
</glyph>
<glyph name="parenleft" format="1">
  <advance width="600"/>
  <unicode hex="0028"/>
  <outline>
    <contour>
      <point x="471" y="-185" type="line"/>
      <point x="465" y="-176"/>
      <point x="318" y="28"/>
      <point x="318" y="294" type="curve" smooth="yes"/>
      <point x="318" y="559"/>
      <point x="465" y="764"/>
      <point x="471" y="772" type="curve"/>
      <point x="398" y="810" type="line"/>
      <point x="392" y="801"/>
      <point x="225" y="610"/>
      <point x="225" y="294" type="curve" smooth="yes"/>
      <point x="225" y="-23"/>
      <point x="392" y="-214"/>
      <point x="398" y="-223" type="curve"/>
    </contour>
  </outline>
</glyph>
<glyph name="asterisk" format="1">
  <advance width="600"/>
  <unicode hex="002A"/>
  <outline>
    <contour>
      <point x="417" y="555" type="line"/>
      <point x="329" y="665" type="line"/>
      <point x="281" y="629" type="line"/>
      <point x="358" y="512" type="line"/>
    </contour>
    <contour>
      <point x="317" y="629" type="line"/>
      <point x="270" y="665" type="line"/>
      <point x="181" y="555" type="line"/>
      <point x="240" y="512" type="line"/>
    </contour>
    <contour>
      <point x="299" y="685" type="line"/>
      <point x="168" y="735" type="line"/>
      <point x="146" y="666" type="line"/>
      <point x="281" y="629" type="line"/>
    </contour>
    <contour>
      <point x="320" y="618"/>
      <point x="337" y="635"/>
      <point x="337" y="657" type="curve" smooth="yes"/>
      <point x="337" y="678"/>
      <point x="320" y="695"/>
      <point x="299" y="695" type="curve" smooth="yes"/>
      <point x="277" y="695"/>
      <point x="260" y="678"/>
      <point x="260" y="657" type="curve" smooth="yes"/>
      <point x="260" y="635"/>
      <point x="277" y="618"/>
      <point x="299" y="618" type="curve" smooth="yes"/>
    </contour>
    <contour>
      <point x="329" y="665" type="line"/>
      <point x="336" y="800" type="line"/>
      <point x="263" y="800" type="line"/>
      <point x="270" y="665" type="line"/>
    </contour>
    <contour>
      <point x="452" y="666" type="line"/>
      <point x="430" y="735" type="line"/>
      <point x="299" y="685" type="line"/>
      <point x="317" y="629" type="line"/>
    </contour>
  </outline>
</glyph>
<glyph name="plus" format="1">
  <advance width="600"/>
  <unicode hex="002B"/>
  <outline>
    <contour>
      <point x="109" y="263" type="line"/>
      <point x="496" y="263" type="line"/>
      <point x="496" y="345" type="line"/>
      <point x="109" y="345" type="line"/>
    </contour>
    <contour>
      <point x="344" y="110" type="line"/>
      <point x="344" y="497" type="line"/>
      <point x="262" y="497" type="line"/>
      <point x="262" y="110" type="line"/>
    </contour>
  </outline>
</glyph>
<glyph name="comma" format="1">
  <advance width="600"/>
  <unicode hex="002C"/>
  <outline>
    <contour>
      <point x="300" y="-14"/>
      <point x="335" y="21"/>
      <point x="335" y="66" type="curve" smooth="yes"/>
      <point x="335" y="109"/>
      <point x="300" y="144"/>
      <point x="256" y="144" type="curve" smooth="yes"/>
      <point x="212" y="144"/>
      <point x="177" y="109"/>
      <point x="177" y="66" type="curve" smooth="yes"/>
      <point x="177" y="21"/>
      <point x="212" y="-14"/>
      <point x="256" y="-14" type="curve" smooth="yes"/>
    </contour>
    <contour>
      <point x="198" y="-105" type="line"/>
      <point x="261" y="-132" type="line"/>
      <point x="330" y="35" type="line"/>
      <point x="238" y="25" type="line"/>
    </contour>
  </outline>
</glyph>
<glyph name="hyphen" format="1">
  <advance width="600"/>
  <unicode hex="002D"/>
  <outline>
    <contour>
      <point x="148" y="263" type="line"/>
      <point x="446" y="263" type="line"/>
      <point x="446" y="345" type="line"/>
      <point x="148" y="345" type="line"/>
    </contour>
  </outline>
</glyph>
<glyph name="period" format="1">
  <advance width="600"/>
  <unicode hex="002E"/>
  <outline>
    <contour>
      <point x="341" y="-11"/>
      <point x="377" y="25"/>
      <point x="377" y="70" type="curve" smooth="yes"/>
      <point x="377" y="115"/>
      <point x="341" y="151"/>
      <point x="296" y="151" type="curve" smooth="yes"/>
      <point x="251" y="151"/>
      <point x="215" y="115"/>
      <point x="215" y="70" type="curve" smooth="yes"/>
      <point x="215" y="25"/>
      <point x="251" y="-11"/>
      <point x="296" y="-11" type="curve" smooth="yes"/>
    </contour>
  </outline>
</glyph>
<glyph name="zero" format="1">
  <advance width="600"/>
  <unicode hex="0030"/>
  <outline>
    <contour>
      <point x="418" y="-11"/>
      <point x="526" y="60"/>
      <point x="526" y="348" type="curve" smooth="yes"/>
      <point x="526" y="635"/>
      <point x="418" y="706"/>
      <point x="302" y="706" type="curve" smooth="yes"/>
      <point x="185" y="706"/>
      <point x="77" y="635"/>
      <point x="77" y="348" type="curve" smooth="yes"/>
      <point x="77" y="60"/>
      <point x="185" y="-11"/>
      <point x="302" y="-11" type="curve" smooth="yes"/>
    </contour>
    <contour>
      <point x="239" y="72"/>
      <point x="175" y="124"/>
      <point x="175" y="348" type="curve" smooth="yes"/>
      <point x="175" y="571"/>
      <point x="239" y="623"/>
      <point x="302" y="623" type="curve" smooth="yes"/>
      <point x="364" y="623"/>
      <point x="428" y="571"/>
      <point x="428" y="348" type="curve" smooth="yes"/>
      <point x="428" y="124"/>
      <point x="364" y="72"/>
      <point x="302" y="72" type="curve" smooth="yes"/>
    </contour>
    <contour>
      <point x="330" y="266"/>
      <point x="356" y="282"/>
      <point x="356" y="348" type="curve" smooth="yes"/>
      <point x="356" y="413"/>
      <point x="330" y="429"/>
      <point x="302" y="429" type="curve" smooth="yes"/>
      <point x="273" y="429"/>
      <point x="247" y="413"/>
      <point x="247" y="348" type="curve" smooth="yes"/>
      <point x="247" y="282"/>
      <point x="273" y="266"/>
      <point x="302" y="266" type="curve" smooth="yes"/>
    </contour>
  </outline>
</glyph>
<glyph name="one" format="1">
  <advance width="600"/>
  <unicode hex="0031"/>
  <outline>
    <contour>
      <point x="140" y="513" type="line"/>
      <point x="269" y="590" type="line"/>
      <point x="284" y="700" type="line"/>
      <point x="99" y="589" type="line"/>
    </contour>
    <contour>
      <point x="362" y="56" type="line"/>
      <point x="362" y="700" type="line"/>
      <point x="284" y="700" type="line"/>
      <point x="269" y="590" type="line"/>
      <point x="269" y="31" type="line"/>
    </contour>
    <contour>
      <point x="131" y="0" type="line"/>
      <point x="491" y="0" type="line"/>
      <point x="491" y="82" type="line"/>
      <point x="131" y="82" type="line"/>
    </contour>
  </outline>
</glyph>
<glyph name="two" format="1">
  <advance width="600"/>
  <unicode hex="0032"/>
  <outline>
    <contour>
      <point x="226" y="82" type="line"/>
      <point x="251" y="99"/>
      <point x="314" y="156"/>
      <point x="363" y="213" type="curve" smooth="yes"/>
      <point x="445" y="307"/>
      <point x="510" y="404"/>
      <point x="510" y="505" type="curve" smooth="yes"/>
      <point x="510" y="611"/>
      <point x="440" y="706"/>
      <point x="305" y="706" type="curve" smooth="yes"/>
      <point x="207" y="706"/>
      <point x="120" y="659"/>
      <point x="83" y="585" type="curve"/>
      <point x="170" y="540" type="line"/>
      <point x="191" y="588"/>
      <point x="242" y="623"/>
      <point x="303" y="623" type="curve" smooth="yes"/>
      <point x="369" y="623"/>
      <point x="412" y="577"/>
      <point x="412" y="505" type="curve" smooth="yes"/>
      <point x="412" y="427"/>
      <point x="352" y="332"/>
      <point x="284" y="257" type="curve" smooth="yes"/>
      <point x="231" y="197"/>
      <point x="165" y="142"/>
      <point x="88" y="82" type="curve"/>
    </contour>
    <contour>
      <point x="507" y="0" type="line"/>
      <point x="507" y="82" type="line"/>
      <point x="88" y="82" type="line"/>
      <point x="88" y="0" type="line"/>
    </contour>
  </outline>
</glyph>
<glyph name="three" format="1">
  <advance width="600"/>
  <unicode hex="0033"/>
  <outline>
    <contour>
      <point x="448" y="-11"/>
      <point x="533" y="67"/>
      <point x="533" y="196" type="curve" smooth="yes"/>
      <point x="533" y="290"/>
      <point x="474" y="360"/>
      <point x="347" y="371" type="curve" smooth="yes"/>
      <point x="343" y="371"/>
      <point x="285" y="313"/>
      <point x="291" y="313" type="curve" smooth="yes"/>
      <point x="401" y="313"/>
      <point x="434" y="262"/>
      <point x="434" y="196" type="curve" smooth="yes"/>
      <point x="434" y="122"/>
      <point x="393" y="72"/>
      <point x="308" y="72" type="curve" smooth="yes"/>
      <point x="240" y="72"/>
      <point x="182" y="105"/>
      <point x="160" y="155" type="curve"/>
      <point x="73" y="110" type="line"/>
      <point x="111" y="34"/>
      <point x="199" y="-11"/>
      <point x="308" y="-11" type="curve" smooth="yes"/>
    </contour>
    <contour>
      <point x="401" y="313" type="line"/>
      <point x="401" y="395" type="line"/>
      <point x="263" y="395" type="line"/>
      <point x="263" y="313" type="line"/>
    </contour>
    <contour>
      <point x="467" y="362"/>
      <point x="519" y="433"/>
      <point x="519" y="520" type="curve" smooth="yes"/>
      <point x="519" y="639"/>
      <point x="434" y="706"/>
      <point x="303" y="706" type="curve" smooth="yes"/>
      <point x="203" y="706"/>
      <point x="123" y="659"/>
      <point x="86" y="585" type="curve"/>
      <point x="173" y="540" type="line"/>
      <point x="194" y="588"/>
      <point x="244" y="623"/>
      <point x="303" y="623" type="curve" smooth="yes"/>
      <point x="379" y="623"/>
      <point x="420" y="594"/>
      <point x="420" y="520" type="curve" smooth="yes"/>
      <point x="420" y="458"/>
      <point x="401" y="395"/>
      <point x="291" y="395" type="curve" smooth="yes"/>
      <point x="285" y="395"/>
      <point x="337" y="336"/>
      <point x="341" y="337" type="curve" smooth="yes"/>
    </contour>
  </outline>
</glyph>
<glyph name="four" format="1">
  <advance width="600"/>
  <unicode hex="0034"/>
  <outline>
    <contour>
      <point x="173" y="234" type="line"/>
      <point x="314" y="649" type="line"/>
      <point x="237" y="700" type="line"/>
      <point x="78" y="234" type="line"/>
    </contour>
    <contour>
      <point x="382" y="618" type="line"/>
      <point x="382" y="700" type="line"/>
      <point x="237" y="700" type="line"/>
      <point x="237" y="618" type="line"/>
    </contour>
    <contour>
      <point x="412" y="0" type="line"/>
      <point x="412" y="700" type="line"/>
      <point x="319" y="700" type="line"/>
      <point x="319" y="0" type="line"/>
    </contour>
    <contour>
      <point x="531" y="152" type="line"/>
      <point x="531" y="234" type="line"/>
      <point x="78" y="234" type="line"/>
      <point x="78" y="152" type="line"/>
    </contour>
  </outline>
</glyph>
<glyph name="five" format="1">
  <advance width="600"/>
  <unicode hex="0035"/>
  <outline>
    <contour>
      <point x="424" y="-11"/>
      <point x="517" y="80"/>
      <point x="517" y="231" type="curve" smooth="yes"/>
      <point x="517" y="384"/>
      <point x="446" y="466"/>
      <point x="309" y="466" type="curve" smooth="yes"/>
      <point x="228" y="466"/>
      <point x="151" y="419"/>
      <point x="123" y="329" type="curve"/>
      <point x="170" y="296" type="line"/>
      <point x="200" y="358"/>
      <point x="265" y="383"/>
      <point x="309" y="383" type="curve" smooth="yes"/>
      <point x="392" y="383"/>
      <point x="419" y="320"/>
      <point x="419" y="231" type="curve" smooth="yes"/>
      <point x="419" y="144"/>
      <point x="379" y="72"/>
      <point x="290" y="72" type="curve" smooth="yes"/>
      <point x="226" y="72"/>
      <point x="181" y="90"/>
      <point x="148" y="148" type="curve"/>
      <point x="62" y="103" type="line"/>
      <point x="110" y="21"/>
      <point x="189" y="-11"/>
      <point x="287" y="-11" type="curve" smooth="yes"/>
    </contour>
    <contour>
      <point x="203" y="673" type="line"/>
      <point x="118" y="700" type="line"/>
      <point x="83" y="334" type="line"/>
      <point x="170" y="296" type="line"/>
    </contour>
    <contour>
      <point x="479" y="618" type="line"/>
      <point x="479" y="700" type="line"/>
      <point x="118" y="700" type="line"/>
      <point x="118" y="618" type="line"/>
    </contour>
  </outline>
</glyph>
<glyph name="six" format="1">
  <advance width="600"/>
  <unicode hex="0036"/>
  <outline>
    <contour>
      <point x="480" y="685" type="line"/>
      <point x="445" y="701"/>
      <point x="396" y="709"/>
      <point x="347" y="706" type="curve" smooth="yes"/>
      <point x="211" y="698"/>
      <point x="70" y="590"/>
      <point x="70" y="328" type="curve" smooth="yes"/>
      <point x="70" y="75"/>
      <point x="158" y="-11"/>
      <point x="305" y="-11" type="curve"/>
      <point x="305" y="72" type="line"/>
      <point x="212" y="72"/>
      <point x="168" y="139"/>
      <point x="168" y="328" type="curve" smooth="yes"/>
      <point x="168" y="526"/>
      <point x="266" y="618"/>
      <point x="347" y="623" type="curve" smooth="yes"/>
      <point x="381" y="625"/>
      <point x="417" y="621"/>
      <point x="440" y="609" type="curve"/>
    </contour>
    <contour>
      <point x="305" y="-11" type="line"/>
      <point x="442" y="-11"/>
      <point x="527" y="80"/>
      <point x="527" y="231" type="curve" smooth="yes"/>
      <point x="527" y="384"/>
      <point x="457" y="467"/>
      <point x="320" y="467" type="curve" smooth="yes"/>
      <point x="229" y="467"/>
      <point x="170" y="423"/>
      <point x="122" y="333" type="curve"/>
      <point x="166" y="296" type="line"/>
      <point x="196" y="358"/>
      <point x="256" y="384"/>
      <point x="320" y="384" type="curve" smooth="yes"/>
      <point x="403" y="384"/>
      <point x="429" y="320"/>
      <point x="429" y="231" type="curve" smooth="yes"/>
      <point x="429" y="144"/>
      <point x="388" y="72"/>
      <point x="305" y="72" type="curve"/>
    </contour>
  </outline>
</glyph>
<glyph name="seven" format="1">
  <advance width="600"/>
  <unicode hex="0037"/>
  <outline>
    <contour>
      <point x="420" y="618" type="line"/>
      <point x="134" y="0" type="line"/>
      <point x="238" y="0" type="line"/>
      <point x="515" y="618" type="line"/>
    </contour>
    <contour>
      <point x="515" y="700" type="line"/>
      <point x="94" y="700" type="line"/>
      <point x="94" y="618" type="line"/>
      <point x="515" y="618" type="line"/>
    </contour>
  </outline>
</glyph>
<glyph name="eight" format="1">
  <advance width="600"/>
  <unicode hex="0038"/>
  <outline>
    <contour>
      <point x="439" y="-11"/>
      <point x="537" y="58"/>
      <point x="537" y="201" type="curve" smooth="yes"/>
      <point x="537" y="343"/>
      <point x="419" y="410"/>
      <point x="303" y="410" type="curve" smooth="yes"/>
      <point x="186" y="410"/>
      <point x="68" y="343"/>
      <point x="68" y="201" type="curve" smooth="yes"/>
      <point x="68" y="58"/>
      <point x="166" y="-11"/>
      <point x="303" y="-11" type="curve" smooth="yes"/>
    </contour>
    <contour>
      <point x="220" y="72"/>
      <point x="166" y="117"/>
      <point x="166" y="201" type="curve" smooth="yes"/>
      <point x="166" y="284"/>
      <point x="230" y="327"/>
      <point x="303" y="327" type="curve" smooth="yes"/>
      <point x="375" y="327"/>
      <point x="439" y="284"/>
      <point x="439" y="201" type="curve" smooth="yes"/>
      <point x="439" y="117"/>
      <point x="385" y="72"/>
      <point x="303" y="72" type="curve" smooth="yes"/>
    </contour>
    <contour>
      <point x="409" y="327"/>
      <point x="507" y="393"/>
      <point x="507" y="516" type="curve" smooth="yes"/>
      <point x="507" y="638"/>
      <point x="419" y="707"/>
      <point x="303" y="707" type="curve" smooth="yes"/>
      <point x="186" y="707"/>
      <point x="98" y="638"/>
      <point x="98" y="516" type="curve" smooth="yes"/>
      <point x="98" y="393"/>
      <point x="196" y="327"/>
      <point x="303" y="327" type="curve" smooth="yes"/>
    </contour>
    <contour>
      <point x="230" y="410"/>
      <point x="196" y="452"/>
      <point x="196" y="516" type="curve" smooth="yes"/>
      <point x="196" y="579"/>
      <point x="230" y="624"/>
      <point x="303" y="624" type="curve" smooth="yes"/>
      <point x="375" y="624"/>
      <point x="409" y="579"/>
      <point x="409" y="516" type="curve" smooth="yes"/>
      <point x="409" y="452"/>
      <point x="375" y="410"/>
      <point x="303" y="410" type="curve" smooth="yes"/>
    </contour>
  </outline>
</glyph>
<glyph name="nine" format="1">
  <advance width="600"/>
  <unicode hex="0039"/>
  <outline>
    <contour>
      <point x="292" y="707" type="line"/>
      <point x="155" y="707"/>
      <point x="70" y="616"/>
      <point x="70" y="465" type="curve" smooth="yes"/>
      <point x="70" y="312"/>
      <point x="143" y="229"/>
      <point x="280" y="229" type="curve" smooth="yes"/>
      <point x="371" y="229"/>
      <point x="427" y="273"/>
      <point x="475" y="363" type="curve"/>
      <point x="431" y="400" type="line"/>
      <point x="401" y="338"/>
      <point x="341" y="312"/>
      <point x="277" y="312" type="curve" smooth="yes"/>
      <point x="194" y="312"/>
      <point x="168" y="376"/>
      <point x="168" y="465" type="curve" smooth="yes"/>
      <point x="168" y="552"/>
      <point x="209" y="624"/>
      <point x="292" y="624" type="curve"/>
    </contour>
    <contour>
      <point x="133" y="0" type="line"/>
      <point x="145" y="0"/>
      <point x="229" y="-3"/>
      <point x="307" y="21" type="curve" smooth="yes"/>
      <point x="428" y="58"/>
      <point x="527" y="136"/>
      <point x="527" y="398" type="curve" smooth="yes"/>
      <point x="527" y="631"/>
      <point x="439" y="707"/>
      <point x="292" y="707" type="curve"/>
      <point x="292" y="624" type="line"/>
      <point x="385" y="624"/>
      <point x="429" y="567"/>
      <point x="429" y="398" type="curve" smooth="yes"/>
      <point x="429" y="200"/>
      <point x="375" y="130"/>
      <point x="297" y="103" type="curve" smooth="yes"/>
      <point x="233" y="81"/>
      <point x="143" y="81"/>
      <point x="133" y="81" type="curve"/>
    </contour>
  </outline>
</glyph>
<glyph name="less" format="1">
  <advance width="600"/>
  <unicode hex="003C"/>
  <outline>
    <contour>
      <point x="190" y="242" type="line"/>
      <point x="491" y="499" type="line"/>
      <point x="448" y="562" type="line"/>
      <point x="122" y="332" type="line"/>
    </contour>
    <contour>
      <point x="122" y="245" type="line"/>
      <point x="173" y="245" type="line"/>
      <point x="173" y="332" type="line"/>
      <point x="122" y="332" type="line"/>
    </contour>
    <contour>
      <point x="448" y="15" type="line"/>
      <point x="491" y="78" type="line"/>
      <point x="190" y="335" type="line"/>
      <point x="122" y="245" type="line"/>
    </contour>
  </outline>
</glyph>
<glyph name="equal" format="1">
  <advance width="600"/>
  <unicode hex="003D"/>
  <outline>
    <contour>
      <point x="105" y="171" type="line"/>
      <point x="492" y="171" type="line"/>
      <point x="492" y="253" type="line"/>
      <point x="105" y="253" type="line"/>
    </contour>
    <contour>
      <point x="105" y="355" type="line"/>
      <point x="492" y="355" type="line"/>
      <point x="492" y="437" type="line"/>
      <point x="105" y="437" type="line"/>
    </contour>
  </outline>
</glyph>
<glyph name="question" format="1">
  <advance width="600"/>
  <unicode hex="003F"/>
  <outline>
    <contour>
      <point x="332" y="205" type="line"/>
      <point x="332" y="243" type="line"/>
      <point x="332" y="340"/>
      <point x="514" y="388"/>
      <point x="519" y="520" type="curve" smooth="yes"/>
      <point x="524" y="639"/>
      <point x="434" y="706"/>
      <point x="303" y="706" type="curve" smooth="yes"/>
      <point x="203" y="706"/>
      <point x="123" y="659"/>
      <point x="86" y="585" type="curve"/>
      <point x="173" y="540" type="line"/>
      <point x="194" y="588"/>
      <point x="244" y="623"/>
      <point x="303" y="623" type="curve" smooth="yes"/>
      <point x="379" y="623"/>
      <point x="423" y="594"/>
      <point x="420" y="520" type="curve" smooth="yes"/>
      <point x="415" y="413"/>
      <point x="238" y="391"/>
      <point x="238" y="228" type="curve"/>
      <point x="238" y="205" type="line"/>
    </contour>
    <contour>
      <point x="324" y="-11"/>
      <point x="354" y="19"/>
      <point x="354" y="57" type="curve" smooth="yes"/>
      <point x="354" y="94"/>
      <point x="324" y="124"/>
      <point x="286" y="124" type="curve" smooth="yes"/>
      <point x="248" y="124"/>
      <point x="218" y="94"/>
      <point x="218" y="57" type="curve" smooth="yes"/>
      <point x="218" y="19"/>
      <point x="248" y="-11"/>
      <point x="286" y="-11" type="curve" smooth="yes"/>
    </contour>
  </outline>
</glyph>
<glyph name="at" format="1">
  <advance width="600"/>
  <unicode hex="0040"/>
  <outline>
    <contour>
      <point x="347" y="-11"/>
      <point x="402" y="10"/>
      <point x="407" y="13" type="curve"/>
      <point x="370" y="81" type="line"/>
      <point x="370" y="81"/>
      <point x="340" y="62"/>
      <point x="263" y="65" type="curve" smooth="yes"/>
      <point x="140" y="70"/>
      <point x="68" y="150"/>
      <point x="85" y="348" type="curve" smooth="yes"/>
      <point x="103" y="559"/>
      <point x="205" y="635"/>
      <point x="338" y="634" type="curve" smooth="yes"/>
      <point x="471" y="633"/>
      <point x="536" y="553"/>
      <point x="518" y="361" type="curve" smooth="yes"/>
      <point x="506" y="234"/>
      <point x="487" y="173"/>
      <point x="444" y="181" type="curve" smooth="yes"/>
      <point x="412" y="187"/>
      <point x="423" y="276"/>
      <point x="430" y="337" type="curve" smooth="yes"/>
      <point x="434" y="373"/>
      <point x="451" y="524"/>
      <point x="451" y="524" type="curve" smooth="yes"/>
      <point x="451" y="524"/>
      <point x="402" y="550"/>
      <point x="336" y="552" type="curve" smooth="yes"/>
      <point x="241" y="555"/>
      <point x="169" y="491"/>
      <point x="156" y="347" type="curve" smooth="yes"/>
      <point x="143" y="201"/>
      <point x="191" y="145"/>
      <point x="268" y="145" type="curve" smooth="yes"/>
      <point x="318" y="145"/>
      <point x="361" y="181"/>
      <point x="370" y="210" type="curve"/>
      <point x="368" y="174"/>
      <point x="387" y="125"/>
      <point x="437" y="116" type="curve" smooth="yes"/>
      <point x="537" y="99"/>
      <point x="578" y="194"/>
      <point x="592" y="351" type="curve" smooth="yes"/>
      <point x="616" y="614"/>
      <point x="501" y="704"/>
      <point x="353" y="706" type="curve" smooth="yes"/>
      <point x="198" y="708"/>
      <point x="21" y="643"/>
      <point x="4" y="348" type="curve" smooth="yes"/>
      <point x="-13" y="50"/>
      <point x="136" y="-6"/>
      <point x="263" y="-9" type="curve" smooth="yes"/>
    </contour>
    <contour>
      <point x="239" y="220"/>
      <point x="222" y="253"/>
      <point x="233" y="344" type="curve" smooth="yes"/>
      <point x="245" y="440"/>
      <point x="271" y="481"/>
      <point x="326" y="478" type="curve" smooth="yes"/>
      <point x="361" y="476"/>
      <point x="375" y="470"/>
      <point x="375" y="470" type="curve"/>
      <point x="375" y="470"/>
      <point x="363" y="357"/>
      <point x="361" y="338" type="curve" smooth="yes"/>
      <point x="350" y="242"/>
      <point x="319" y="220"/>
      <point x="284" y="220" type="curve" smooth="yes"/>
    </contour>
  </outline>
</glyph>
<glyph name="A" format="1">
  <advance width="600"/>
  <unicode hex="0041"/>
  <outline>
    <contour>
      <point x="52" y="0" type="line"/>
      <point x="147" y="0" type="line"/>
      <point x="304" y="700" type="line"/>
      <point x="209" y="700" type="line"/>
    </contour>
    <contour>
      <point x="296" y="700" type="line"/>
      <point x="453" y="0" type="line"/>
      <point x="548" y="0" type="line"/>
      <point x="391" y="700" type="line"/>
    </contour>
    <contour>
      <point x="221" y="618" type="line"/>
      <point x="379" y="618" type="line"/>
      <point x="379" y="700" type="line"/>
      <point x="221" y="700" type="line"/>
    </contour>
    <contour>
      <point x="129" y="204" type="line"/>
      <point x="471" y="204" type="line"/>
      <point x="471" y="286" type="line"/>
      <point x="129" y="286" type="line"/>
    </contour>
  </outline>
</glyph>
<glyph name="B" format="1">
  <advance width="600"/>
  <unicode hex="0042"/>
  <outline>
    <contour>
      <point x="421" y="370"/>
      <point x="509" y="386"/>
      <point x="509" y="529" type="curve" smooth="yes"/>
      <point x="509" y="690"/>
      <point x="395" y="700"/>
      <point x="311" y="700" type="curve" smooth="yes"/>
      <point x="90" y="700" type="line"/>
      <point x="90" y="0" type="line"/>
      <point x="362" y="0" type="line" smooth="yes"/>
      <point x="481" y="0"/>
      <point x="544" y="66"/>
      <point x="544" y="200" type="curve" smooth="yes"/>
      <point x="544" y="356"/>
      <point x="421" y="370"/>
      <point x="421" y="370" type="curve" smooth="yes"/>
    </contour>
    <contour>
      <point x="324" y="618" type="line" smooth="yes"/>
      <point x="386" y="618"/>
      <point x="410" y="603"/>
      <point x="410" y="519" type="curve" smooth="yes"/>
      <point x="410" y="440"/>
      <point x="388" y="402"/>
      <point x="328" y="402" type="curve" smooth="yes"/>
      <point x="183" y="402" type="line"/>
      <point x="183" y="618" type="line"/>
    </contour>
    <contour>
      <point x="183" y="82" type="line"/>
      <point x="183" y="320" type="line"/>
      <point x="348" y="320" type="line" smooth="yes"/>
      <point x="405" y="320"/>
      <point x="450" y="293"/>
      <point x="450" y="201" type="curve" smooth="yes"/>
      <point x="450" y="125"/>
      <point x="438" y="82"/>
      <point x="348" y="82" type="curve" smooth="yes"/>
    </contour>
  </outline>
</glyph>
<glyph name="C" format="1">
  <advance width="600"/>
  <unicode hex="0043"/>
  <outline>
    <contour>
      <point x="453" y="158" type="line"/>
      <point x="423" y="94"/>
      <point x="374" y="72"/>
      <point x="319" y="72" type="curve" smooth="yes"/>
      <point x="226" y="72"/>
      <point x="162" y="129"/>
      <point x="162" y="348" type="curve" smooth="yes"/>
      <point x="162" y="566"/>
      <point x="226" y="623"/>
      <point x="319" y="623" type="curve" smooth="yes"/>
      <point x="373" y="623"/>
      <point x="421" y="602"/>
      <point x="451" y="540" type="curve"/>
      <point x="537" y="585" type="line"/>
      <point x="489" y="675"/>
      <point x="410" y="706"/>
      <point x="319" y="706" type="curve" smooth="yes"/>
      <point x="172" y="706"/>
      <point x="64" y="630"/>
      <point x="64" y="348" type="curve" smooth="yes"/>
      <point x="64" y="65"/>
      <point x="172" y="-11"/>
      <point x="319" y="-11" type="curve" smooth="yes"/>
      <point x="411" y="-11"/>
      <point x="491" y="21"/>
      <point x="539" y="113" type="curve"/>
    </contour>
  </outline>
</glyph>
<glyph name="D" format="1">
  <advance width="600"/>
  <unicode hex="0044"/>
  <outline>
    <contour>
      <point x="547" y="350" type="line"/>
      <point x="547" y="700"/>
      <point x="385" y="700"/>
      <point x="280" y="700" type="curve" smooth="yes"/>
      <point x="93" y="700" type="line"/>
      <point x="93" y="350" type="line"/>
      <point x="186" y="350" type="line"/>
      <point x="186" y="402" type="line"/>
      <point x="186" y="618" type="line"/>
      <point x="293" y="618" type="line"/>
      <point x="405" y="618"/>
      <point x="450" y="566"/>
      <point x="450" y="350" type="curve"/>
    </contour>
    <contour>
      <point x="450" y="134"/>
      <point x="405" y="82"/>
      <point x="293" y="82" type="curve"/>
      <point x="186" y="82" type="line"/>
      <point x="186" y="298" type="line"/>
      <point x="186" y="350" type="line"/>
      <point x="93" y="350" type="line"/>
      <point x="93" y="0" type="line"/>
      <point x="280" y="0" type="line" smooth="yes"/>
      <point x="385" y="0"/>
      <point x="547" y="0"/>
      <point x="547" y="350" type="curve"/>
      <point x="450" y="350" type="line"/>
    </contour>
  </outline>
</glyph>
<glyph name="E" format="1">
  <advance width="600"/>
  <unicode hex="0045"/>
  <outline>
    <contour>
      <point x="197" y="0" type="line"/>
      <point x="197" y="700" type="line"/>
      <point x="104" y="700" type="line"/>
      <point x="104" y="0" type="line"/>
    </contour>
    <contour>
      <point x="166" y="0" type="line"/>
      <point x="518" y="0" type="line"/>
      <point x="518" y="82" type="line"/>
      <point x="166" y="82" type="line"/>
    </contour>
    <contour>
      <point x="166" y="303" type="line"/>
      <point x="464" y="303" type="line"/>
      <point x="464" y="385" type="line"/>
      <point x="166" y="385" type="line"/>
    </contour>
    <contour>
      <point x="166" y="618" type="line"/>
      <point x="518" y="618" type="line"/>
      <point x="518" y="700" type="line"/>
      <point x="166" y="700" type="line"/>
    </contour>
  </outline>
</glyph>
<glyph name="F" format="1">
  <advance width="600"/>
  <unicode hex="0046"/>
  <outline>
    <contour>
      <point x="224" y="0" type="line"/>
      <point x="224" y="700" type="line"/>
      <point x="131" y="700" type="line"/>
      <point x="131" y="0" type="line"/>
    </contour>
    <contour>
      <point x="193" y="303" type="line"/>
      <point x="505" y="303" type="line"/>
      <point x="505" y="385" type="line"/>
      <point x="193" y="385" type="line"/>
    </contour>
    <contour>
      <point x="193" y="618" type="line"/>
      <point x="545" y="618" type="line"/>
      <point x="545" y="700" type="line"/>
      <point x="193" y="700" type="line"/>
    </contour>
  </outline>
</glyph>
<glyph name="G" format="1">
  <advance width="600"/>
  <unicode hex="0047"/>
  <outline>
    <contour>
      <point x="444" y="141" type="line"/>
      <point x="427" y="103"/>
      <point x="383" y="72"/>
      <point x="308" y="72" type="curve" smooth="yes"/>
      <point x="215" y="72"/>
      <point x="148" y="125"/>
      <point x="148" y="348" type="curve" smooth="yes"/>
      <point x="148" y="571"/>
      <point x="222" y="623"/>
      <point x="315" y="623" type="curve" smooth="yes"/>
      <point x="369" y="623"/>
      <point x="407" y="602"/>
      <point x="437" y="540" type="curve"/>
      <point x="523" y="585" type="line"/>
      <point x="475" y="675"/>
      <point x="406" y="706"/>
      <point x="315" y="706" type="curve" smooth="yes"/>
      <point x="168" y="706"/>
      <point x="50" y="635"/>
      <point x="50" y="348" type="curve" smooth="yes"/>
      <point x="50" y="60"/>
      <point x="161" y="-11"/>
      <point x="308" y="-11" type="curve" smooth="yes"/>
      <point x="429" y="-11"/>
      <point x="502" y="46"/>
      <point x="536" y="104" type="curve"/>
    </contour>
    <contour>
      <point x="314" y="303" type="line"/>
      <point x="536" y="303" type="line"/>
      <point x="536" y="385" type="line"/>
      <point x="314" y="385" type="line"/>
    </contour>
    <contour>
      <point x="536" y="104" type="line"/>
      <point x="536" y="385" type="line"/>
      <point x="443" y="385" type="line"/>
      <point x="443" y="104" type="line"/>
    </contour>
  </outline>
</glyph>
<glyph name="H" format="1">
  <advance width="600"/>
  <unicode hex="0048"/>
  <outline>
    <contour>
      <point x="173" y="0" type="line"/>
      <point x="173" y="700" type="line"/>
      <point x="80" y="700" type="line"/>
      <point x="80" y="0" type="line"/>
    </contour>
    <contour>
      <point x="142" y="323" type="line"/>
      <point x="454" y="323" type="line"/>
      <point x="454" y="405" type="line"/>
      <point x="142" y="405" type="line"/>
    </contour>
    <contour>
      <point x="519" y="0" type="line"/>
      <point x="519" y="700" type="line"/>
      <point x="426" y="700" type="line"/>
      <point x="426" y="0" type="line"/>
    </contour>
  </outline>
</glyph>
<glyph name="I" format="1">
  <advance width="600"/>
  <unicode hex="0049"/>
  <outline>
    <contour>
      <point x="345" y="0" type="line"/>
      <point x="345" y="700" type="line"/>
      <point x="252" y="700" type="line"/>
      <point x="252" y="0" type="line"/>
    </contour>
    <contour>
      <point x="103" y="0" type="line"/>
      <point x="495" y="0" type="line"/>
      <point x="495" y="82" type="line"/>
      <point x="103" y="82" type="line"/>
    </contour>
    <contour>
      <point x="103" y="618" type="line"/>
      <point x="495" y="618" type="line"/>
      <point x="495" y="700" type="line"/>
      <point x="103" y="700" type="line"/>
    </contour>
  </outline>
</glyph>
<glyph name="J" format="1">
  <advance width="600"/>
  <unicode hex="004A"/>
  <outline>
    <contour>
      <point x="373" y="700" type="line"/>
      <point x="373" y="191" type="line"/>
      <point x="466" y="171" type="line"/>
      <point x="466" y="700" type="line"/>
    </contour>
    <contour>
      <point x="93" y="26" type="line"/>
      <point x="126" y="3"/>
      <point x="181" y="-9"/>
      <point x="245" y="-9" type="curve"/>
      <point x="361" y="-9"/>
      <point x="466" y="53"/>
      <point x="466" y="171" type="curve"/>
      <point x="373" y="191" type="line"/>
      <point x="373" y="105"/>
      <point x="326" y="74"/>
      <point x="238" y="74" type="curve"/>
      <point x="201" y="74"/>
      <point x="162" y="85"/>
      <point x="144" y="95" type="curve"/>
    </contour>
    <contour>
      <point x="133" y="618" type="line"/>
      <point x="445" y="618" type="line"/>
      <point x="445" y="700" type="line"/>
      <point x="133" y="700" type="line"/>
    </contour>
  </outline>
</glyph>
<glyph name="K" format="1">
  <advance width="600"/>
  <unicode hex="004B"/>
  <outline>
    <contour>
      <point x="196" y="0" type="line"/>
      <point x="196" y="700" type="line"/>
      <point x="103" y="700" type="line"/>
      <point x="103" y="0" type="line"/>
    </contour>
    <contour>
      <point x="165" y="318" type="line"/>
      <point x="307" y="318" type="line"/>
      <point x="307" y="400" type="line"/>
      <point x="165" y="400" type="line"/>
    </contour>
    <contour>
      <point x="223" y="379" type="line"/>
      <point x="307" y="346" type="line"/>
      <point x="546" y="700" type="line"/>
      <point x="439" y="700" type="line"/>
    </contour>
    <contour>
      <point x="563" y="0" type="line"/>
      <point x="302" y="379" type="line"/>
      <point x="196" y="379" type="line"/>
      <point x="456" y="0" type="line"/>
    </contour>
  </outline>
</glyph>
<glyph name="L" format="1">
  <advance width="600"/>
  <unicode hex="004C"/>
  <outline>
    <contour>
      <point x="226" y="0" type="line"/>
      <point x="226" y="700" type="line"/>
      <point x="133" y="700" type="line"/>
      <point x="133" y="0" type="line"/>
    </contour>
    <contour>
      <point x="195" y="0" type="line"/>
      <point x="547" y="0" type="line"/>
      <point x="547" y="82" type="line"/>
      <point x="195" y="82" type="line"/>
    </contour>
  </outline>
</glyph>
<glyph name="M" format="1">
  <advance width="600"/>
  <unicode hex="004D"/>
  <outline>
    <contour>
      <point x="133" y="0" type="line"/>
      <point x="161" y="700" type="line"/>
      <point x="84" y="700" type="line"/>
      <point x="40" y="0" type="line"/>
    </contour>
    <contour>
      <point x="560" y="0" type="line"/>
      <point x="516" y="700" type="line"/>
      <point x="439" y="700" type="line"/>
      <point x="467" y="0" type="line"/>
    </contour>
    <contour>
      <point x="306" y="251" type="line"/>
      <point x="284" y="58" type="line"/>
      <point x="346" y="58" type="line"/>
      <point x="440" y="480" type="line"/>
      <point x="470" y="700" type="line"/>
      <point x="399" y="700" type="line"/>
    </contour>
    <contour>
      <point x="130" y="700" type="line"/>
      <point x="160" y="481" type="line"/>
      <point x="254" y="58" type="line"/>
      <point x="316" y="58" type="line"/>
      <point x="294" y="251" type="line"/>
      <point x="201" y="700" type="line"/>
    </contour>
  </outline>
</glyph>
<glyph name="N" format="1">
  <advance width="600"/>
  <unicode hex="004E"/>
  <outline>
    <contour>
      <point x="174" y="0" type="line"/>
      <point x="174" y="700" type="line"/>
      <point x="81" y="700" type="line"/>
      <point x="81" y="0" type="line"/>
    </contour>
    <contour>
      <point x="111" y="700" type="line"/>
      <point x="400" y="0" type="line"/>
      <point x="491" y="0" type="line"/>
      <point x="202" y="700" type="line"/>
    </contour>
    <contour>
      <point x="521" y="0" type="line"/>
      <point x="521" y="700" type="line"/>
      <point x="428" y="700" type="line"/>
      <point x="428" y="0" type="line"/>
    </contour>
  </outline>
</glyph>
<glyph name="O" format="1">
  <advance width="600"/>
  <unicode hex="004F"/>
  <outline>
    <contour>
      <point x="443" y="-11"/>
      <point x="551" y="60"/>
      <point x="551" y="348" type="curve" smooth="yes"/>
      <point x="551" y="635"/>
      <point x="443" y="706"/>
      <point x="297" y="706" type="curve" smooth="yes"/>
      <point x="150" y="706"/>
      <point x="42" y="635"/>
      <point x="42" y="348" type="curve" smooth="yes"/>
      <point x="42" y="60"/>
      <point x="150" y="-11"/>
      <point x="297" y="-11" type="curve" smooth="yes"/>
    </contour>
    <contour>
      <point x="204" y="72"/>
      <point x="140" y="124"/>
      <point x="140" y="348" type="curve" smooth="yes"/>
      <point x="140" y="571"/>
      <point x="204" y="623"/>
      <point x="297" y="623" type="curve" smooth="yes"/>
      <point x="389" y="623"/>
      <point x="453" y="571"/>
      <point x="453" y="348" type="curve" smooth="yes"/>
      <point x="453" y="124"/>
      <point x="389" y="72"/>
      <point x="297" y="72" type="curve" smooth="yes"/>
    </contour>
  </outline>
</glyph>
<glyph name="P" format="1">
  <advance width="600"/>
  <unicode hex="0050"/>
  <outline>
    <contour>
      <point x="335" y="618" type="line" smooth="yes"/>
      <point x="400" y="618"/>
      <point x="456" y="613"/>
      <point x="456" y="479" type="curve" smooth="yes"/>
      <point x="456" y="335"/>
      <point x="400" y="322"/>
      <point x="335" y="322" type="curve" smooth="yes"/>
      <point x="194" y="322" type="line"/>
      <point x="194" y="618" type="line"/>
    </contour>
    <contour>
      <point x="406" y="240"/>
      <point x="550" y="258"/>
      <point x="550" y="479" type="curve" smooth="yes"/>
      <point x="550" y="690"/>
      <point x="406" y="700"/>
      <point x="322" y="700" type="curve" smooth="yes"/>
      <point x="101" y="700" type="line"/>
      <point x="101" y="0" type="line"/>
      <point x="194" y="0" type="line"/>
      <point x="194" y="240" type="line"/>
      <point x="322" y="240" type="line" smooth="yes"/>
    </contour>
  </outline>
</glyph>
<glyph name="Q" format="1">
  <advance width="600"/>
  <unicode hex="0051"/>
  <outline>
    <contour>
      <point x="439" y="-11"/>
      <point x="547" y="60"/>
      <point x="547" y="348" type="curve" smooth="yes"/>
      <point x="547" y="635"/>
      <point x="439" y="706"/>
      <point x="293" y="706" type="curve" smooth="yes"/>
      <point x="146" y="706"/>
      <point x="38" y="635"/>
      <point x="38" y="348" type="curve" smooth="yes"/>
      <point x="38" y="60"/>
      <point x="146" y="-11"/>
      <point x="293" y="-11" type="curve" smooth="yes"/>
    </contour>
    <contour>
      <point x="559" y="-16" type="line"/>
      <point x="455" y="88" type="line"/>
      <point x="389" y="22" type="line"/>
      <point x="492" y="-80" type="line"/>
    </contour>
    <contour>
      <point x="200" y="72"/>
      <point x="136" y="124"/>
      <point x="136" y="348" type="curve" smooth="yes"/>
      <point x="136" y="571"/>
      <point x="200" y="623"/>
      <point x="293" y="623" type="curve" smooth="yes"/>
      <point x="385" y="623"/>
      <point x="449" y="571"/>
      <point x="449" y="348" type="curve" smooth="yes"/>
      <point x="449" y="124"/>
      <point x="385" y="72"/>
      <point x="293" y="72" type="curve" smooth="yes"/>
    </contour>
  </outline>
</glyph>
<glyph name="R" format="1">
  <advance width="600"/>
  <unicode hex="0052"/>
  <outline>
    <contour>
      <point x="341" y="618" type="line" smooth="yes"/>
      <point x="406" y="618"/>
      <point x="442" y="593"/>
      <point x="442" y="499" type="curve" smooth="yes"/>
      <point x="442" y="392"/>
      <point x="411" y="372"/>
      <point x="346" y="372" type="curve" smooth="yes"/>
      <point x="185" y="372" type="line"/>
      <point x="185" y="618" type="line"/>
    </contour>
    <contour>
      <point x="420" y="290"/>
      <point x="536" y="315"/>
      <point x="536" y="499" type="curve" smooth="yes"/>
      <point x="536" y="683"/>
      <point x="415" y="700"/>
      <point x="331" y="700" type="curve" smooth="yes"/>
      <point x="92" y="700" type="line"/>
      <point x="92" y="0" type="line"/>
      <point x="185" y="0" type="line"/>
      <point x="185" y="290" type="line"/>
      <point x="336" y="290" type="line" smooth="yes"/>
    </contour>
    <contour>
      <point x="537" y="0" type="line"/>
      <point x="392" y="313" type="line"/>
      <point x="291" y="313" type="line"/>
      <point x="432" y="0" type="line"/>
    </contour>
  </outline>
</glyph>
<glyph name="T" format="1">
  <advance width="600"/>
  <unicode hex="0054"/>
  <outline>
    <contour>
      <point x="345" y="0" type="line"/>
      <point x="345" y="700" type="line"/>
      <point x="252" y="700" type="line"/>
      <point x="252" y="0" type="line"/>
    </contour>
    <contour>
      <point x="63" y="618" type="line"/>
      <point x="535" y="618" type="line"/>
      <point x="535" y="700" type="line"/>
      <point x="63" y="700" type="line"/>
    </contour>
  </outline>
</glyph>
<glyph name="U" format="1">
  <advance width="600"/>
  <unicode hex="0055"/>
  <outline>
    <contour>
      <point x="443" y="-11"/>
      <point x="535" y="45"/>
      <point x="535" y="278" type="curve" smooth="yes"/>
      <point x="535" y="278"/>
      <point x="535" y="700"/>
      <point x="535" y="700" type="curve" smooth="yes"/>
      <point x="442" y="700" type="line" smooth="yes"/>
      <point x="442" y="700"/>
      <point x="442" y="308"/>
      <point x="442" y="308" type="curve" smooth="yes"/>
      <point x="442" y="109"/>
      <point x="388" y="72"/>
      <point x="301" y="72" type="curve" smooth="yes"/>
      <point x="213" y="72"/>
      <point x="159" y="109"/>
      <point x="159" y="308" type="curve" smooth="yes"/>
      <point x="159" y="308"/>
      <point x="159" y="700"/>
      <point x="159" y="700" type="curve" smooth="yes"/>
      <point x="66" y="700" type="line" smooth="yes"/>
      <point x="66" y="700"/>
      <point x="66" y="278"/>
      <point x="66" y="278" type="curve" smooth="yes"/>
      <point x="66" y="45"/>
      <point x="160" y="-11"/>
      <point x="301" y="-11" type="curve" smooth="yes"/>
    </contour>
  </outline>
</glyph>
<glyph name="V" format="1">
  <advance width="600"/>
  <unicode hex="0056"/>
  <outline>
    <contour>
      <point x="308" y="0" type="line"/>
      <point x="151" y="700" type="line"/>
      <point x="50" y="700" type="line"/>
      <point x="207" y="0" type="line"/>
    </contour>
    <contour>
      <point x="556" y="700" type="line"/>
      <point x="455" y="700" type="line"/>
      <point x="298" y="0" type="line"/>
      <point x="399" y="0" type="line"/>
    </contour>
    <contour>
      <point x="387" y="0" type="line"/>
      <point x="387" y="82" type="line"/>
      <point x="219" y="82" type="line"/>
      <point x="219" y="0" type="line"/>
    </contour>
  </outline>
</glyph>
<glyph name="W" format="1">
  <advance width="600"/>
  <unicode hex="0057"/>
  <outline>
    <contour>
      <point x="498" y="0" type="line"/>
      <point x="583" y="700" type="line"/>
      <point x="490" y="700" type="line"/>
      <point x="440" y="184" type="line"/>
      <point x="432" y="0" type="line"/>
    </contour>
    <contour>
      <point x="174" y="0" type="line"/>
      <point x="166" y="184" type="line"/>
      <point x="116" y="700" type="line"/>
      <point x="23" y="700" type="line"/>
      <point x="108" y="0" type="line"/>
    </contour>
    <contour>
      <point x="214" y="0" type="line"/>
      <point x="299" y="447" type="line"/>
      <point x="312" y="642" type="line"/>
      <point x="255" y="642" type="line"/>
      <point x="172" y="184" type="line"/>
      <point x="158" y="0" type="line"/>
    </contour>
    <contour>
      <point x="448" y="0" type="line"/>
      <point x="434" y="184" type="line"/>
      <point x="351" y="642" type="line"/>
      <point x="294" y="642" type="line"/>
      <point x="307" y="447" type="line"/>
      <point x="392" y="0" type="line"/>
    </contour>
  </outline>
</glyph>
<glyph name="X" format="1">
  <advance width="600"/>
  <unicode hex="0058"/>
  <outline>
    <contour>
      <point x="287" y="305" type="line"/>
      <point x="369" y="305" type="line"/>
      <point x="369" y="387" type="line"/>
      <point x="287" y="387" type="line"/>
    </contour>
    <contour>
      <point x="305" y="366" type="line"/>
      <point x="384" y="333" type="line"/>
      <point x="548" y="700" type="line"/>
      <point x="446" y="700" type="line"/>
    </contour>
    <contour>
      <point x="548" y="0" type="line"/>
      <point x="379" y="366" type="line"/>
      <point x="285" y="366" type="line"/>
      <point x="446" y="0" type="line"/>
    </contour>
    <contour>
      <point x="227" y="387" type="line"/>
      <point x="227" y="305" type="line"/>
      <point x="299" y="305" type="line"/>
      <point x="299" y="387" type="line"/>
    </contour>
    <contour>
      <point x="48" y="700" type="line"/>
      <point x="212" y="333" type="line"/>
      <point x="291" y="366" type="line"/>
      <point x="150" y="700" type="line"/>
    </contour>
    <contour>
      <point x="311" y="366" type="line"/>
      <point x="217" y="366" type="line"/>
      <point x="48" y="0" type="line"/>
      <point x="150" y="0" type="line"/>
    </contour>
  </outline>
</glyph>
<glyph name="Y" format="1">
  <advance width="600"/>
  <unicode hex="0059"/>
  <outline>
    <contour>
      <point x="301" y="390" type="line"/>
      <point x="347" y="277" type="line"/>
      <point x="555" y="700" type="line"/>
      <point x="448" y="700" type="line"/>
    </contour>
    <contour>
      <point x="45" y="700" type="line"/>
      <point x="256" y="272" type="line"/>
      <point x="299" y="390" type="line"/>
      <point x="152" y="700" type="line"/>
    </contour>
    <contour>
      <point x="347" y="0" type="line"/>
      <point x="347" y="390" type="line"/>
      <point x="254" y="390" type="line"/>
      <point x="254" y="0" type="line"/>
    </contour>
  </outline>
</glyph>
<glyph name="Z" format="1">
  <advance width="600"/>
  <unicode hex="005A"/>
  <outline>
    <contour>
      <point x="194" y="82" type="line"/>
      <point x="512" y="618" type="line"/>
      <point x="411" y="618" type="line"/>
      <point x="92" y="82" type="line"/>
    </contour>
    <contour>
      <point x="100" y="618" type="line"/>
      <point x="512" y="618" type="line"/>
      <point x="512" y="700" type="line"/>
      <point x="100" y="700" type="line"/>
    </contour>
    <contour>
      <point x="92" y="0" type="line"/>
      <point x="524" y="0" type="line"/>
      <point x="524" y="82" type="line"/>
      <point x="92" y="82" type="line"/>
    </contour>
  </outline>
</glyph>
<glyph name="bracketleft" format="1">
  <advance width="600"/>
  <unicode hex="005B"/>
  <outline>
    <contour>
      <point x="333" y="800" type="line"/>
      <point x="333" y="718" type="line"/>
      <point x="480" y="718" type="line"/>
      <point x="480" y="800" type="line"/>
    </contour>
    <contour>
      <point x="338" y="800" type="line"/>
      <point x="245" y="800" type="line"/>
      <point x="245" y="-200" type="line"/>
      <point x="338" y="-200" type="line"/>
    </contour>
    <contour>
      <point x="333" y="-118" type="line"/>
      <point x="333" y="-200" type="line"/>
      <point x="480" y="-200" type="line"/>
      <point x="480" y="-118" type="line"/>
    </contour>
  </outline>
</glyph>
<glyph name="asciicircum" format="1">
  <advance width="600"/>
  <unicode hex="005E"/>
  <outline>
    <contour>
      <point x="446" y="580" type="line"/>
      <point x="362" y="800" type="line"/>
      <point x="244" y="800" type="line"/>
      <point x="160" y="580" type="line"/>
      <point x="243" y="580" type="line"/>
      <point x="296" y="726" type="line"/>
      <point x="310" y="726" type="line"/>
      <point x="363" y="580" type="line"/>
    </contour>
  </outline>
</glyph>
<glyph name="grave" format="1">
  <advance width="600"/>
  <unicode hex="0060"/>
  <outline>
    <contour>
      <point x="318" y="749" type="line"/>
      <point x="183" y="749" type="line"/>
      <point x="324" y="609" type="line"/>
      <point x="418" y="609" type="line"/>
    </contour>
  </outline>
</glyph>
<glyph name="a" format="1">
  <advance width="600"/>
  <unicode hex="0061"/>
  <outline>
    <contour>
      <point x="497" y="371" type="line"/>
      <point x="497" y="462"/>
      <point x="422" y="512"/>
      <point x="296" y="512" type="curve"/>
      <point x="201" y="512"/>
      <point x="130" y="482"/>
      <point x="96" y="448" type="curve"/>
      <point x="158" y="387" type="line"/>
      <point x="183" y="415"/>
      <point x="224" y="429"/>
      <point x="289" y="429" type="curve"/>
      <point x="367" y="429"/>
      <point x="404" y="410"/>
      <point x="404" y="351" type="curve"/>
    </contour>
    <contour>
      <point x="403" y="-11"/>
      <point x="459" y="76"/>
      <point x="459" y="76" type="curve"/>
      <point x="418" y="142" type="line"/>
      <point x="411" y="108"/>
      <point x="344" y="71"/>
      <point x="283" y="71" type="curve"/>
      <point x="191" y="71"/>
      <point x="156" y="93"/>
      <point x="156" y="153" type="curve"/>
      <point x="63" y="153" type="line"/>
      <point x="63" y="41"/>
      <point x="127" y="-11"/>
      <point x="266" y="-11" type="curve"/>
    </contour>
    <contour>
      <point x="156" y="153" type="line"/>
      <point x="156" y="220"/>
      <point x="184" y="234"/>
      <point x="320" y="234" type="curve"/>
      <point x="286" y="316" type="line"/>
      <point x="134" y="316"/>
      <point x="63" y="264"/>
      <point x="63" y="153" type="curve"/>
    </contour>
    <contour>
      <point x="555" y="42" type="line"/>
      <point x="446" y="151" type="line"/>
      <point x="384" y="89" type="line"/>
      <point x="492" y="-18" type="line"/>
    </contour>
    <contour>
      <point x="468" y="234" type="line"/>
      <point x="468" y="316" type="line"/>
      <point x="286" y="316" type="line"/>
      <point x="320" y="234" type="line"/>
    </contour>
    <contour>
      <point x="497" y="294" type="line"/>
      <point x="404" y="294" type="line"/>
      <point x="404" y="116" type="line"/>
      <point x="497" y="89" type="line"/>
    </contour>
    <contour>
      <point x="497" y="209" type="line"/>
      <point x="497" y="371" type="line"/>
      <point x="404" y="351" type="line"/>
      <point x="404" y="209" type="line"/>
    </contour>
  </outline>
</glyph>
<glyph name="b" format="1">
  <advance width="600"/>
  <unicode hex="0062"/>
  <outline>
    <contour>
      <point x="165" y="0" type="line"/>
      <point x="180" y="71" type="line"/>
      <point x="180" y="800" type="line"/>
      <point x="87" y="800" type="line"/>
      <point x="87" y="0" type="line"/>
    </contour>
    <contour>
      <point x="178" y="322" type="line"/>
      <point x="191" y="355"/>
      <point x="237" y="428"/>
      <point x="319" y="428" type="curve" smooth="yes"/>
      <point x="411" y="428"/>
      <point x="441" y="380"/>
      <point x="441" y="251" type="curve"/>
      <point x="534" y="251" type="line"/>
      <point x="534" y="434"/>
      <point x="465" y="511"/>
      <point x="339" y="511" type="curve" smooth="yes"/>
      <point x="212" y="511"/>
      <point x="135" y="414"/>
      <point x="135" y="302" type="curve"/>
    </contour>
    <contour>
      <point x="135" y="98"/>
      <point x="202" y="-11"/>
      <point x="329" y="-11" type="curve" smooth="yes"/>
      <point x="455" y="-11"/>
      <point x="534" y="68"/>
      <point x="534" y="251" type="curve"/>
      <point x="441" y="251" type="line"/>
      <point x="441" y="122"/>
      <point x="401" y="72"/>
      <point x="309" y="72" type="curve" smooth="yes"/>
      <point x="227" y="72"/>
      <point x="181" y="147"/>
      <point x="178" y="190" type="curve"/>
      <point x="135" y="210" type="line"/>
    </contour>
  </outline>
</glyph>
<glyph name="c" format="1">
  <advance width="600"/>
  <unicode hex="0063"/>
  <outline>
    <contour>
      <point x="441" y="148" type="line"/>
      <point x="412" y="94"/>
      <point x="375" y="72"/>
      <point x="334" y="72" type="curve" smooth="yes"/>
      <point x="261" y="72"/>
      <point x="200" y="124"/>
      <point x="200" y="251" type="curve" smooth="yes"/>
      <point x="200" y="380"/>
      <point x="261" y="429"/>
      <point x="334" y="429" type="curve" smooth="yes"/>
      <point x="375" y="429"/>
      <point x="412" y="406"/>
      <point x="439" y="346" type="curve"/>
      <point x="525" y="391" type="line"/>
      <point x="477" y="481"/>
      <point x="408" y="512"/>
      <point x="337" y="512" type="curve" smooth="yes"/>
      <point x="210" y="512"/>
      <point x="102" y="444"/>
      <point x="102" y="251" type="curve" smooth="yes"/>
      <point x="102" y="60"/>
      <point x="210" y="-11"/>
      <point x="337" y="-11" type="curve" smooth="yes"/>
      <point x="409" y="-11"/>
      <point x="479" y="21"/>
      <point x="527" y="103" type="curve"/>
    </contour>
  </outline>
</glyph>
<glyph name="e" format="1">
  <advance width="600"/>
  <unicode hex="0065"/>
  <outline>
    <contour>
      <point x="428" y="141" type="line"/>
      <point x="398" y="92"/>
      <point x="352" y="72"/>
      <point x="304" y="72" type="curve" smooth="yes"/>
      <point x="231" y="72"/>
      <point x="172" y="112"/>
      <point x="172" y="251" type="curve" smooth="yes"/>
      <point x="172" y="394"/>
      <point x="233" y="429"/>
      <point x="306" y="429" type="curve" smooth="yes"/>
      <point x="380" y="429"/>
      <point x="414" y="388"/>
      <point x="423" y="306" type="curve"/>
      <point x="524" y="224" type="line"/>
      <point x="534" y="394"/>
      <point x="461" y="512"/>
      <point x="310" y="512" type="curve" smooth="yes"/>
      <point x="193" y="512"/>
      <point x="74" y="448"/>
      <point x="74" y="251" type="curve" smooth="yes"/>
      <point x="74" y="58"/>
      <point x="193" y="-11"/>
      <point x="307" y="-11" type="curve" smooth="yes"/>
      <point x="382" y="-11"/>
      <point x="462" y="19"/>
      <point x="510" y="96" type="curve"/>
    </contour>
    <contour>
      <point x="168" y="224" type="line"/>
      <point x="524" y="224" type="line"/>
      <point x="460" y="306" type="line"/>
      <point x="168" y="306" type="line"/>
    </contour>
  </outline>
</glyph>
<glyph name="f" format="1">
  <advance width="600"/>
  <unicode hex="0066"/>
  <outline>
    <contour>
      <point x="334" y="0" type="line"/>
      <point x="334" y="606" type="line"/>
      <point x="241" y="626" type="line"/>
      <point x="241" y="0" type="line"/>
    </contour>
    <contour>
      <point x="123" y="418" type="line"/>
      <point x="515" y="418" type="line"/>
      <point x="515" y="500" type="line"/>
      <point x="123" y="500" type="line"/>
    </contour>
    <contour>
      <point x="543" y="792" type="line"/>
      <point x="516" y="802"/>
      <point x="483" y="807"/>
      <point x="442" y="807" type="curve"/>
      <point x="326" y="807"/>
      <point x="241" y="744"/>
      <point x="241" y="626" type="curve"/>
      <point x="334" y="606" type="line"/>
      <point x="334" y="692"/>
      <point x="361" y="724"/>
      <point x="449" y="724" type="curve"/>
      <point x="478" y="724"/>
      <point x="499" y="721"/>
      <point x="515" y="715" type="curve"/>
    </contour>
  </outline>
</glyph>
<glyph name="g" format="1">
  <advance width="600"/>
  <unicode hex="0067"/>
  <outline>
    <contour>
      <point x="388" y="149"/>
      <point x="515" y="188"/>
      <point x="515" y="331" type="curve" smooth="yes"/>
      <point x="515" y="473"/>
      <point x="407" y="512"/>
      <point x="301" y="512" type="curve" smooth="yes"/>
      <point x="194" y="512"/>
      <point x="86" y="473"/>
      <point x="86" y="331" type="curve" smooth="yes"/>
      <point x="86" y="188"/>
      <point x="194" y="149"/>
      <point x="301" y="149" type="curve" smooth="yes"/>
    </contour>
    <contour>
      <point x="218" y="231"/>
      <point x="184" y="257"/>
      <point x="184" y="331" type="curve" smooth="yes"/>
      <point x="184" y="404"/>
      <point x="208" y="430"/>
      <point x="301" y="430" type="curve" smooth="yes"/>
      <point x="393" y="430"/>
      <point x="417" y="414"/>
      <point x="417" y="331" type="curve" smooth="yes"/>
      <point x="417" y="257"/>
      <point x="383" y="231"/>
      <point x="301" y="231" type="curve" smooth="yes"/>
    </contour>
    <contour>
      <point x="258" y="-1" type="line"/>
      <point x="268" y="81" type="line"/>
      <point x="244" y="81" type="line" smooth="yes"/>
      <point x="162" y="81"/>
      <point x="205" y="142"/>
      <point x="228" y="170" type="curve"/>
      <point x="185" y="199" type="line"/>
      <point x="160" y="181"/>
      <point x="109" y="151"/>
      <point x="105" y="92" type="curve" smooth="yes"/>
      <point x="101" y="37"/>
      <point x="149" y="-1"/>
      <point x="240" y="-1" type="curve" smooth="yes"/>
    </contour>
    <contour>
      <point x="75" y="-147"/>
      <point x="159" y="-192"/>
      <point x="307" y="-192" type="curve"/>
      <point x="307" y="-114" type="line"/>
      <point x="241" y="-114"/>
      <point x="202" y="-102"/>
      <point x="181" y="-77" type="curve" smooth="yes"/>
      <point x="162" y="-54"/>
      <point x="175" y="-1"/>
      <point x="196" y="17" type="curve"/>
      <point x="145" y="45" type="line"/>
      <point x="120" y="27"/>
      <point x="75" y="-10"/>
      <point x="75" y="-69" type="curve" smooth="yes"/>
    </contour>
    <contour>
      <point x="544" y="37"/>
      <point x="493" y="81"/>
      <point x="409" y="81" type="curve"/>
      <point x="374" y="-1" type="line"/>
      <point x="445" y="-1"/>
      <point x="443" y="-32"/>
      <point x="437" y="-57" type="curve" smooth="yes"/>
      <point x="428" y="-94"/>
      <point x="388" y="-114"/>
      <point x="307" y="-114" type="curve"/>
      <point x="307" y="-192" type="line"/>
      <point x="455" y="-192"/>
      <point x="526" y="-125"/>
      <point x="535" y="-43" type="curve" smooth="yes"/>
    </contour>
    <contour>
      <point x="409" y="81" type="line"/>
      <point x="409" y="81"/>
      <point x="408" y="81"/>
      <point x="408" y="81" type="curve" smooth="yes"/>
      <point x="268" y="81" type="line"/>
      <point x="258" y="-1" type="line"/>
      <point x="374" y="-1" type="line"/>
    </contour>
    <contour>
      <point x="417" y="441" type="line"/>
      <point x="474" y="384" type="line"/>
      <point x="571" y="481" type="line"/>
      <point x="513" y="536" type="line"/>
    </contour>
  </outline>
</glyph>
<glyph name="h" format="1">
  <advance width="600"/>
  <unicode hex="0068"/>
  <outline>
    <contour>
      <point x="168" y="0" type="line"/>
      <point x="168" y="800" type="line"/>
      <point x="75" y="800" type="line"/>
      <point x="75" y="0" type="line"/>
    </contour>
    <contour>
      <point x="166" y="332" type="line"/>
      <point x="179" y="365"/>
      <point x="225" y="428"/>
      <point x="317" y="428" type="curve" smooth="yes"/>
      <point x="409" y="428"/>
      <point x="419" y="371"/>
      <point x="419" y="252" type="curve" smooth="yes"/>
      <point x="419" y="0" type="line"/>
      <point x="512" y="0" type="line"/>
      <point x="512" y="282" type="line" smooth="yes"/>
      <point x="512" y="445"/>
      <point x="453" y="511"/>
      <point x="337" y="511" type="curve" smooth="yes"/>
      <point x="200" y="511"/>
      <point x="123" y="424"/>
      <point x="123" y="312" type="curve"/>
    </contour>
  </outline>
</glyph>
<glyph name="i" format="1">
  <advance width="600"/>
  <unicode hex="0069"/>
  <outline>
    <contour>
      <point x="111" y="418" type="line"/>
      <point x="254" y="418" type="line"/>
      <point x="254" y="500" type="line"/>
      <point x="111" y="500" type="line"/>
    </contour>
    <contour>
      <point x="342" y="56" type="line"/>
      <point x="342" y="500" type="line"/>
      <point x="249" y="500" type="line"/>
      <point x="249" y="31" type="line"/>
    </contour>
    <contour>
      <point x="249" y="0" type="line"/>
      <point x="471" y="0" type="line"/>
      <point x="471" y="82" type="line"/>
      <point x="249" y="82" type="line"/>
    </contour>
    <contour>
      <point x="333" y="629"/>
      <point x="363" y="659"/>
      <point x="363" y="698" type="curve" smooth="yes"/>
      <point x="363" y="737"/>
      <point x="333" y="767"/>
      <point x="294" y="767" type="curve" smooth="yes"/>
      <point x="255" y="767"/>
      <point x="225" y="737"/>
      <point x="225" y="698" type="curve" smooth="yes"/>
      <point x="225" y="659"/>
      <point x="255" y="629"/>
      <point x="294" y="629" type="curve" smooth="yes"/>
    </contour>
  </outline>
</glyph>
<glyph name="j" format="1">
  <advance width="600"/>
  <unicode hex="006A"/>
  <outline>
    <contour>
      <point x="337" y="500" type="line"/>
      <point x="337" y="8" type="line"/>
      <point x="430" y="-12" type="line"/>
      <point x="430" y="500" type="line"/>
    </contour>
    <contour>
      <point x="145" y="-183" type="line"/>
      <point x="169" y="-189"/>
      <point x="197" y="-192"/>
      <point x="229" y="-192" type="curve"/>
      <point x="345" y="-192"/>
      <point x="430" y="-130"/>
      <point x="430" y="-12" type="curve"/>
      <point x="337" y="8" type="line"/>
      <point x="337" y="-78"/>
      <point x="310" y="-109"/>
      <point x="222" y="-109" type="curve"/>
      <point x="201" y="-109"/>
      <point x="182" y="-106"/>
      <point x="166" y="-100" type="curve"/>
    </contour>
    <contour>
      <point x="159" y="418" type="line"/>
      <point x="409" y="418" type="line"/>
      <point x="409" y="500" type="line"/>
      <point x="159" y="500" type="line"/>
    </contour>
    <contour>
      <point x="418" y="629"/>
      <point x="448" y="659"/>
      <point x="448" y="698" type="curve" smooth="yes"/>
      <point x="448" y="737"/>
      <point x="418" y="767"/>
      <point x="379" y="767" type="curve" smooth="yes"/>
      <point x="340" y="767"/>
      <point x="310" y="737"/>
      <point x="310" y="698" type="curve" smooth="yes"/>
      <point x="310" y="659"/>
      <point x="340" y="629"/>
      <point x="379" y="629" type="curve" smooth="yes"/>
    </contour>
  </outline>
</glyph>
<glyph name="k" format="1">
  <advance width="600"/>
  <unicode hex="006B"/>
  <outline>
    <contour>
      <point x="205" y="0" type="line"/>
      <point x="205" y="800" type="line"/>
      <point x="112" y="800" type="line"/>
      <point x="112" y="0" type="line"/>
    </contour>
    <contour>
      <point x="174" y="218" type="line"/>
      <point x="296" y="218" type="line"/>
      <point x="296" y="300" type="line"/>
      <point x="174" y="300" type="line"/>
    </contour>
    <contour>
      <point x="212" y="279" type="line"/>
      <point x="297" y="246" type="line"/>
      <point x="531" y="500" type="line"/>
      <point x="418" y="500" type="line"/>
    </contour>
    <contour>
      <point x="548" y="0" type="line"/>
      <point x="297" y="279" type="line"/>
      <point x="185" y="279" type="line"/>
      <point x="435" y="0" type="line"/>
    </contour>
  </outline>
</glyph>
<glyph name="l" format="1">
  <advance width="600"/>
  <unicode hex="006C"/>
  <outline>
    <contour>
      <point x="328" y="142" type="line"/>
      <point x="328" y="800" type="line"/>
      <point x="235" y="800" type="line"/>
      <point x="235" y="122" type="line"/>
    </contour>
    <contour>
      <point x="448" y="-11"/>
      <point x="482" y="-1"/>
      <point x="490" y="0" type="curve"/>
      <point x="490" y="78" type="line"/>
      <point x="479" y="76"/>
      <point x="431" y="66"/>
      <point x="400" y="66" type="curve"/>
      <point x="373" y="66"/>
      <point x="328" y="69"/>
      <point x="328" y="142" type="curve"/>
      <point x="235" y="122" type="line"/>
      <point x="235" y="9"/>
      <point x="319" y="-11"/>
      <point x="381" y="-11" type="curve"/>
    </contour>
    <contour>
      <point x="240" y="718" type="line"/>
      <point x="240" y="800" type="line"/>
      <point x="78" y="800" type="line"/>
      <point x="78" y="718" type="line"/>
    </contour>
  </outline>
</glyph>
<glyph name="m" format="1">
  <advance width="600"/>
  <unicode hex="006D"/>
  <outline>
    <contour>
      <point x="581" y="0" type="line"/>
      <point x="581" y="322" type="line" smooth="yes"/>
      <point x="581" y="485"/>
      <point x="534" y="511"/>
      <point x="468" y="511" type="curve" smooth="yes"/>
      <point x="383" y="511"/>
      <point x="314" y="424"/>
      <point x="314" y="312" type="curve"/>
      <point x="357" y="352" type="line"/>
      <point x="364" y="391"/>
      <point x="406" y="428"/>
      <point x="438" y="428" type="curve" smooth="yes"/>
      <point x="480" y="428"/>
      <point x="490" y="401"/>
      <point x="490" y="282" type="curve" smooth="yes"/>
      <point x="490" y="0" type="line"/>
    </contour>
    <contour>
      <point x="136" y="0" type="line"/>
      <point x="136" y="402" type="line"/>
      <point x="136" y="402"/>
      <point x="116" y="500"/>
      <point x="116" y="500" type="curve"/>
      <point x="45" y="500" type="line"/>
      <point x="45" y="500"/>
      <point x="45" y="436"/>
      <point x="45" y="345" type="curve"/>
      <point x="45" y="0" type="line"/>
    </contour>
    <contour>
      <point x="357" y="0" type="line"/>
      <point x="357" y="352" type="line" smooth="yes"/>
      <point x="357" y="352"/>
      <point x="353" y="367"/>
      <point x="353" y="392" type="curve" smooth="yes"/>
      <point x="353" y="475"/>
      <point x="302" y="511"/>
      <point x="242" y="511" type="curve" smooth="yes"/>
      <point x="157" y="511"/>
      <point x="93" y="424"/>
      <point x="93" y="312" type="curve"/>
      <point x="136" y="352" type="line"/>
      <point x="143" y="391"/>
      <point x="185" y="428"/>
      <point x="217" y="428" type="curve" smooth="yes"/>
      <point x="259" y="428"/>
      <point x="269" y="401"/>
      <point x="269" y="282" type="curve" smooth="yes"/>
      <point x="269" y="0" type="line"/>
    </contour>
  </outline>
</glyph>
<glyph name="n" format="1">
  <advance width="600"/>
  <unicode hex="006E"/>
  <outline>
    <contour>
      <point x="174" y="332" type="line"/>
      <point x="187" y="365"/>
      <point x="233" y="428"/>
      <point x="315" y="428" type="curve" smooth="yes"/>
      <point x="407" y="428"/>
      <point x="417" y="371"/>
      <point x="417" y="252" type="curve" smooth="yes"/>
      <point x="417" y="0" type="line"/>
      <point x="510" y="0" type="line"/>
      <point x="510" y="282" type="line" smooth="yes"/>
      <point x="510" y="445"/>
      <point x="451" y="511"/>
      <point x="335" y="511" type="curve" smooth="yes"/>
      <point x="208" y="511"/>
      <point x="131" y="424"/>
      <point x="131" y="312" type="curve"/>
    </contour>
    <contour>
      <point x="81" y="500" type="line"/>
      <point x="81" y="500"/>
      <point x="81" y="436"/>
      <point x="81" y="345" type="curve"/>
      <point x="81" y="0" type="line"/>
      <point x="174" y="0" type="line"/>
      <point x="174" y="402" type="line"/>
      <point x="174" y="402"/>
      <point x="154" y="500"/>
      <point x="154" y="500" type="curve"/>
    </contour>
  </outline>
</glyph>
<glyph name="o" format="1">
  <advance width="600"/>
  <unicode hex="006F"/>
  <outline>
    <contour>
      <point x="419" y="-11"/>
      <point x="527" y="58"/>
      <point x="527" y="251" type="curve" smooth="yes"/>
      <point x="527" y="443"/>
      <point x="419" y="512"/>
      <point x="303" y="512" type="curve" smooth="yes"/>
      <point x="186" y="512"/>
      <point x="78" y="443"/>
      <point x="78" y="251" type="curve" smooth="yes"/>
      <point x="78" y="58"/>
      <point x="186" y="-11"/>
      <point x="303" y="-11" type="curve" smooth="yes"/>
    </contour>
    <contour>
      <point x="240" y="72"/>
      <point x="176" y="117"/>
      <point x="176" y="251" type="curve" smooth="yes"/>
      <point x="176" y="384"/>
      <point x="240" y="429"/>
      <point x="303" y="429" type="curve" smooth="yes"/>
      <point x="365" y="429"/>
      <point x="429" y="384"/>
      <point x="429" y="251" type="curve" smooth="yes"/>
      <point x="429" y="117"/>
      <point x="365" y="72"/>
      <point x="303" y="72" type="curve" smooth="yes"/>
    </contour>
  </outline>
</glyph>
<glyph name="p" format="1">
  <advance width="600"/>
  <unicode hex="0070"/>
  <outline>
    <contour>
      <point x="87" y="-200" type="line"/>
      <point x="180" y="-200" type="line"/>
      <point x="180" y="429" type="line"/>
      <point x="160" y="500" type="line"/>
      <point x="87" y="500" type="line"/>
    </contour>
    <contour>
      <point x="135" y="96"/>
      <point x="192" y="-11"/>
      <point x="329" y="-11" type="curve" smooth="yes"/>
      <point x="455" y="-11"/>
      <point x="534" y="66"/>
      <point x="534" y="249" type="curve"/>
      <point x="441" y="249" type="line"/>
      <point x="441" y="120"/>
      <point x="401" y="72"/>
      <point x="309" y="72" type="curve" smooth="yes"/>
      <point x="227" y="72"/>
      <point x="182" y="135"/>
      <point x="178" y="178" type="curve"/>
      <point x="135" y="208" type="line"/>
    </contour>
    <contour>
      <point x="178" y="310" type="line"/>
      <point x="181" y="353"/>
      <point x="237" y="429"/>
      <point x="319" y="429" type="curve" smooth="yes"/>
      <point x="411" y="429"/>
      <point x="441" y="378"/>
      <point x="441" y="249" type="curve"/>
      <point x="534" y="249" type="line"/>
      <point x="534" y="432"/>
      <point x="465" y="512"/>
      <point x="339" y="512" type="curve" smooth="yes"/>
      <point x="212" y="512"/>
      <point x="135" y="394"/>
      <point x="135" y="290" type="curve"/>
    </contour>
  </outline>
</glyph>
<glyph name="r" format="1">
  <advance width="600"/>
  <unicode hex="0072"/>
  <outline>
    <contour>
      <point x="328" y="332" type="line"/>
      <point x="341" y="365"/>
      <point x="387" y="426"/>
      <point x="469" y="426" type="curve" smooth="yes"/>
      <point x="513" y="426"/>
      <point x="536" y="417"/>
      <point x="542" y="412" type="curve"/>
      <point x="572" y="495" type="line"/>
      <point x="558" y="501"/>
      <point x="528" y="512"/>
      <point x="489" y="512" type="curve" smooth="yes"/>
      <point x="362" y="512"/>
      <point x="285" y="424"/>
      <point x="285" y="312" type="curve"/>
    </contour>
    <contour>
      <point x="494" y="0" type="line"/>
      <point x="494" y="82" type="line"/>
      <point x="103" y="82" type="line"/>
      <point x="103" y="0" type="line"/>
    </contour>
    <contour>
      <point x="328" y="0" type="line"/>
      <point x="328" y="402" type="line"/>
      <point x="308" y="500" type="line"/>
      <point x="235" y="500" type="line"/>
      <point x="235" y="345" type="line"/>
      <point x="235" y="0" type="line"/>
    </contour>
    <contour>
      <point x="262" y="418" type="line"/>
      <point x="262" y="500" type="line"/>
      <point x="103" y="500" type="line"/>
      <point x="103" y="418" type="line"/>
    </contour>
  </outline>
</glyph>
<glyph name="s" format="1">
  <advance width="600"/>
  <unicode hex="0073"/>
  <outline>
    <contour>
      <point x="392" y="-11"/>
      <point x="514" y="32"/>
      <point x="514" y="140" type="curve" smooth="yes"/>
      <point x="514" y="261"/>
      <point x="338" y="289"/>
      <point x="294" y="302" type="curve" smooth="yes"/>
      <point x="261" y="312"/>
      <point x="194" y="329"/>
      <point x="194" y="370" type="curve" smooth="yes"/>
      <point x="194" y="417"/>
      <point x="265" y="429"/>
      <point x="301" y="429" type="curve" smooth="yes"/>
      <point x="339" y="429"/>
      <point x="396" y="412"/>
      <point x="419" y="374" type="curve"/>
      <point x="495" y="423" type="line"/>
      <point x="452" y="489"/>
      <point x="363" y="512"/>
      <point x="301" y="512" type="curve" smooth="yes"/>
      <point x="216" y="512"/>
      <point x="96" y="473"/>
      <point x="96" y="373" type="curve" smooth="yes"/>
      <point x="96" y="264"/>
      <point x="230" y="229"/>
      <point x="281" y="216" type="curve" smooth="yes"/>
      <point x="315" y="207"/>
      <point x="416" y="190"/>
      <point x="416" y="137" type="curve" smooth="yes"/>
      <point x="416" y="89"/>
      <point x="354" y="72"/>
      <point x="294" y="72" type="curve" smooth="yes"/>
      <point x="243" y="72"/>
      <point x="170" y="93"/>
      <point x="149" y="129" type="curve"/>
      <point x="71" y="77" type="line"/>
      <point x="115" y="12"/>
      <point x="217" y="-11"/>
      <point x="292" y="-11" type="curve" smooth="yes"/>
    </contour>
  </outline>
</glyph>
<glyph name="t" format="1">
  <advance width="600"/>
  <unicode hex="0074"/>
  <outline>
    <contour>
      <point x="318" y="142" type="line"/>
      <point x="318" y="680" type="line"/>
      <point x="225" y="680" type="line"/>
      <point x="225" y="122" type="line"/>
    </contour>
    <contour>
      <point x="423" y="-11"/>
      <point x="452" y="-1"/>
      <point x="460" y="0" type="curve"/>
      <point x="460" y="78" type="line"/>
      <point x="449" y="76"/>
      <point x="406" y="66"/>
      <point x="375" y="66" type="curve"/>
      <point x="343" y="66"/>
      <point x="318" y="79"/>
      <point x="318" y="142" type="curve"/>
      <point x="225" y="122" type="line"/>
      <point x="225" y="19"/>
      <point x="289" y="-11"/>
      <point x="356" y="-11" type="curve"/>
    </contour>
    <contour>
      <point x="497" y="418" type="line"/>
      <point x="497" y="500" type="line"/>
      <point x="85" y="500" type="line"/>
      <point x="85" y="418" type="line"/>
    </contour>
  </outline>
</glyph>
<glyph name="u" format="1">
  <advance width="600"/>
  <unicode hex="0075"/>
  <outline>
    <contour>
      <point x="386" y="-10"/>
      <point x="463" y="77"/>
      <point x="463" y="189" type="curve"/>
      <point x="420" y="169" type="line"/>
      <point x="407" y="136"/>
      <point x="361" y="73"/>
      <point x="279" y="73" type="curve" smooth="yes"/>
      <point x="187" y="73"/>
      <point x="177" y="130"/>
      <point x="177" y="249" type="curve" smooth="yes"/>
      <point x="177" y="501" type="line"/>
      <point x="84" y="501" type="line"/>
      <point x="84" y="219" type="line" smooth="yes"/>
      <point x="84" y="56"/>
      <point x="143" y="-10"/>
      <point x="259" y="-10" type="curve" smooth="yes"/>
    </contour>
    <contour>
      <point x="514" y="0" type="line" smooth="yes"/>
      <point x="514" y="0"/>
      <point x="513" y="101"/>
      <point x="513" y="101" type="curve"/>
      <point x="513" y="501" type="line"/>
      <point x="420" y="501" type="line"/>
      <point x="420" y="99" type="line"/>
      <point x="420" y="99"/>
      <point x="430" y="0"/>
      <point x="430" y="0" type="curve"/>
    </contour>
  </outline>
</glyph>
<glyph name="v" format="1">
  <advance width="600"/>
  <unicode hex="0076"/>
  <outline>
    <contour>
      <point x="98" y="500" type="line"/>
      <point x="220" y="0" type="line"/>
      <point x="307" y="0" type="line"/>
      <point x="195" y="500" type="line"/>
    </contour>
    <contour>
      <point x="409" y="500" type="line"/>
      <point x="297" y="0" type="line"/>
      <point x="384" y="0" type="line"/>
      <point x="506" y="500" type="line"/>
    </contour>
    <contour>
      <point x="372" y="0" type="line"/>
      <point x="372" y="82" type="line"/>
      <point x="232" y="82" type="line"/>
      <point x="232" y="0" type="line"/>
    </contour>
  </outline>
</glyph>
<glyph name="w" format="1">
  <advance width="600"/>
  <unicode hex="0077"/>
  <outline>
    <contour>
      <point x="108" y="0" type="line"/>
      <point x="188" y="0" type="line"/>
      <point x="135" y="500" type="line"/>
      <point x="45" y="500" type="line"/>
    </contour>
    <contour>
      <point x="408" y="0" type="line"/>
      <point x="488" y="0" type="line"/>
      <point x="551" y="500" type="line"/>
      <point x="461" y="500" type="line"/>
    </contour>
    <contour>
      <point x="341" y="500" type="line"/>
      <point x="255" y="500" type="line"/>
      <point x="151" y="0" type="line"/>
      <point x="220" y="0" type="line"/>
    </contour>
    <contour>
      <point x="445" y="0" type="line"/>
      <point x="341" y="500" type="line"/>
      <point x="255" y="500" type="line"/>
      <point x="376" y="0" type="line"/>
    </contour>
  </outline>
</glyph>
<glyph name="x" format="1">
  <advance width="600"/>
  <unicode hex="0078"/>
  <outline>
    <contour>
      <point x="296" y="273" type="line"/>
      <point x="376" y="240" type="line"/>
      <point x="541" y="500" type="line"/>
      <point x="434" y="500" type="line"/>
    </contour>
    <contour>
      <point x="274" y="212" type="line"/>
      <point x="366" y="212" type="line"/>
      <point x="366" y="294" type="line"/>
      <point x="274" y="294" type="line"/>
    </contour>
    <contour>
      <point x="541" y="0" type="line"/>
      <point x="371" y="273" type="line"/>
      <point x="272" y="273" type="line"/>
      <point x="434" y="0" type="line"/>
    </contour>
    <contour>
      <point x="224" y="294" type="line"/>
      <point x="224" y="212" type="line"/>
      <point x="316" y="212" type="line"/>
      <point x="316" y="294" type="line"/>
    </contour>
    <contour>
      <point x="49" y="500" type="line"/>
      <point x="214" y="240" type="line"/>
      <point x="294" y="273" type="line"/>
      <point x="156" y="500" type="line"/>
    </contour>
    <contour>
      <point x="318" y="273" type="line"/>
      <point x="219" y="273" type="line"/>
      <point x="49" y="0" type="line"/>
      <point x="156" y="0" type="line"/>
    </contour>
  </outline>
</glyph>
<glyph name="y" format="1">
  <advance width="600"/>
  <unicode hex="0079"/>
  <outline>
    <contour>
      <point x="72" y="500" type="line"/>
      <point x="254" y="0" type="line"/>
      <point x="321" y="34" type="line"/>
      <point x="179" y="500" type="line"/>
    </contour>
    <contour>
      <point x="406" y="500" type="line"/>
      <point x="264" y="34" type="line"/>
      <point x="341" y="0" type="line"/>
      <point x="513" y="500" type="line"/>
    </contour>
    <contour>
      <point x="76" y="-183" type="line"/>
      <point x="83" y="-186"/>
      <point x="113" y="-192"/>
      <point x="138" y="-192" type="curve"/>
      <point x="229" y="-192"/>
      <point x="297" y="-118"/>
      <point x="341" y="0" type="curve"/>
      <point x="295" y="34" type="line"/>
      <point x="256" y="11" type="line"/>
      <point x="218" y="-75"/>
      <point x="193" y="-109"/>
      <point x="131" y="-109" type="curve"/>
      <point x="118" y="-109"/>
      <point x="108" y="-106"/>
      <point x="106" y="-105" type="curve"/>
    </contour>
  </outline>
</glyph>
<glyph name="z" format="1">
  <advance width="600"/>
  <unicode hex="007A"/>
  <outline>
    <contour>
      <point x="221" y="82" type="line"/>
      <point x="494" y="418" type="line"/>
      <point x="388" y="418" type="line"/>
      <point x="113" y="82" type="line"/>
    </contour>
    <contour>
      <point x="121" y="418" type="line"/>
      <point x="494" y="418" type="line"/>
      <point x="494" y="500" type="line"/>
      <point x="121" y="500" type="line"/>
    </contour>
    <contour>
      <point x="113" y="0" type="line"/>
      <point x="506" y="0" type="line"/>
      <point x="506" y="82" type="line"/>
      <point x="113" y="82" type="line"/>
    </contour>
  </outline>
</glyph>
<glyph name="braceleft" format="1">
  <advance width="600"/>
  <unicode hex="007B"/>
  <outline>
    <contour>
      <point x="193" y="315" type="line" smooth="yes"/>
      <point x="259" y="315"/>
      <point x="344" y="318"/>
      <point x="344" y="436" type="curve" smooth="yes"/>
      <point x="344" y="606" type="line" smooth="yes"/>
      <point x="344" y="692"/>
      <point x="372" y="724"/>
      <point x="459" y="724" type="curve" smooth="yes"/>
      <point x="467" y="724" type="line"/>
      <point x="467" y="807" type="line"/>
      <point x="452" y="807" type="line" smooth="yes"/>
      <point x="336" y="807"/>
      <point x="251" y="743"/>
      <point x="251" y="625" type="curve" smooth="yes"/>
      <point x="251" y="476" type="line" smooth="yes"/>
      <point x="251" y="390"/>
      <point x="233" y="358"/>
      <point x="186" y="358" type="curve" smooth="yes"/>
      <point x="178" y="358" type="line"/>
      <point x="178" y="315" type="line"/>
    </contour>
    <contour>
      <point x="178" y="275" type="line"/>
      <point x="186" y="275" type="line" smooth="yes"/>
      <point x="233" y="275"/>
      <point x="251" y="243"/>
      <point x="251" y="157" type="curve" smooth="yes"/>
      <point x="251" y="8" type="line" smooth="yes"/>
      <point x="251" y="-110"/>
      <point x="336" y="-174"/>
      <point x="452" y="-174" type="curve" smooth="yes"/>
      <point x="467" y="-174" type="line"/>
      <point x="467" y="-91" type="line"/>
      <point x="459" y="-91" type="line" smooth="yes"/>
      <point x="372" y="-91"/>
      <point x="344" y="-59"/>
      <point x="344" y="27" type="curve" smooth="yes"/>
      <point x="344" y="197" type="line" smooth="yes"/>
      <point x="344" y="315"/>
      <point x="259" y="318"/>
      <point x="193" y="318" type="curve" smooth="yes"/>
      <point x="178" y="318" type="line"/>
    </contour>
  </outline>
</glyph>
<glyph name="bar" format="1">
  <advance width="600"/>
  <unicode hex="007C"/>
  <outline>
    <contour>
      <point x="255" y="-130" type="line"/>
      <point x="340" y="-130" type="line"/>
      <point x="340" y="800" type="line"/>
      <point x="255" y="800" type="line"/>
    </contour>
  </outline>
</glyph>
<glyph name="cent" format="1">
  <advance width="600"/>
  <unicode hex="00A2"/>
  <outline>
    <contour>
      <point x="389" y="85"/>
      <point x="459" y="117"/>
      <point x="507" y="199" type="curve"/>
      <point x="421" y="244" type="line"/>
      <point x="391" y="190"/>
      <point x="349" y="168"/>
      <point x="304" y="168" type="curve" smooth="yes"/>
      <point x="221" y="168"/>
      <point x="160" y="220"/>
      <point x="160" y="347" type="curve" smooth="yes"/>
      <point x="160" y="476"/>
      <point x="221" y="525"/>
      <point x="304" y="525" type="curve" smooth="yes"/>
      <point x="348" y="525"/>
      <point x="389" y="504"/>
      <point x="419" y="442" type="curve"/>
      <point x="505" y="487" type="line"/>
      <point x="457" y="577"/>
      <point x="388" y="608"/>
      <point x="307" y="608" type="curve" smooth="yes"/>
      <point x="170" y="608"/>
      <point x="62" y="540"/>
      <point x="62" y="347" type="curve" smooth="yes"/>
      <point x="62" y="156"/>
      <point x="170" y="85"/>
      <point x="307" y="85" type="curve" smooth="yes"/>
    </contour>
    <contour>
      <point x="330" y="0" type="line"/>
      <point x="330" y="120" type="line"/>
      <point x="255" y="120" type="line"/>
      <point x="255" y="0" type="line"/>
    </contour>
    <contour>
      <point x="330" y="580" type="line"/>
      <point x="330" y="700" type="line"/>
      <point x="255" y="700" type="line"/>
      <point x="255" y="580" type="line"/>
    </contour>
  </outline>
</glyph>
<glyph name="sterling" format="1">
  <advance width="600"/>
  <unicode hex="00A3"/>
  <outline>
    <contour>
      <point x="222" y="88"/>
      <point x="280" y="187"/>
      <point x="265" y="291" type="curve" smooth="yes"/>
      <point x="256" y="353"/>
      <point x="222" y="440"/>
      <point x="222" y="505" type="curve" smooth="yes"/>
      <point x="222" y="590"/>
      <point x="281" y="623"/>
      <point x="345" y="623" type="curve" smooth="yes"/>
      <point x="398" y="623"/>
      <point x="434" y="605"/>
      <point x="455" y="561" type="curve"/>
      <point x="527" y="605" type="line"/>
      <point x="500" y="666"/>
      <point x="436" y="706"/>
      <point x="345" y="706" type="curve" smooth="yes"/>
      <point x="213" y="706"/>
      <point x="123" y="626"/>
      <point x="123" y="505" type="curve" smooth="yes"/>
      <point x="123" y="426"/>
      <point x="162" y="351"/>
      <point x="175" y="290" type="curve" smooth="yes"/>
      <point x="193" y="204"/>
      <point x="138" y="106"/>
      <point x="90" y="68" type="curve"/>
      <point x="155" y="49" type="line"/>
    </contour>
    <contour>
      <point x="132" y="-10"/>
      <point x="212" y="14"/>
      <point x="261" y="13" type="curve" smooth="yes"/>
      <point x="315" y="12"/>
      <point x="357" y="-10"/>
      <point x="423" y="-13" type="curve" smooth="yes"/>
      <point x="488" y="-16"/>
      <point x="525" y="1"/>
      <point x="525" y="1" type="curve"/>
      <point x="500" y="83" type="line"/>
      <point x="500" y="83"/>
      <point x="477" y="62"/>
      <point x="423" y="65" type="curve" smooth="yes"/>
      <point x="367" y="68"/>
      <point x="349" y="83"/>
      <point x="284" y="85" type="curve" smooth="yes"/>
      <point x="226" y="87"/>
      <point x="176" y="64"/>
      <point x="161" y="53" type="curve"/>
      <point x="161" y="53"/>
      <point x="93" y="68"/>
      <point x="90" y="68" type="curve"/>
      <point x="121" y="-13" type="line"/>
    </contour>
    <contour>
      <point x="445" y="307" type="line"/>
      <point x="445" y="389" type="line"/>
      <point x="56" y="389" type="line"/>
      <point x="56" y="307" type="line"/>
    </contour>
  </outline>
</glyph>
<glyph name="currency" format="1">
  <advance width="600"/>
  <unicode hex="00A4"/>
  <outline>
    <contour>
      <point x="408" y="169"/>
      <point x="506" y="232"/>
      <point x="506" y="370" type="curve" smooth="yes"/>
      <point x="506" y="508"/>
      <point x="408" y="570"/>
      <point x="303" y="570" type="curve" smooth="yes"/>
      <point x="197" y="570"/>
      <point x="99" y="508"/>
      <point x="99" y="370" type="curve" smooth="yes"/>
      <point x="99" y="232"/>
      <point x="197" y="169"/>
      <point x="303" y="169" type="curve" smooth="yes"/>
    </contour>
    <contour>
      <point x="187" y="199" type="line"/>
      <point x="133" y="253" type="line"/>
      <point x="56" y="177" type="line"/>
      <point x="110" y="122" type="line"/>
    </contour>
    <contour>
      <point x="246" y="244"/>
      <point x="188" y="285"/>
      <point x="188" y="370" type="curve" smooth="yes"/>
      <point x="188" y="454"/>
      <point x="246" y="495"/>
      <point x="303" y="495" type="curve" smooth="yes"/>
      <point x="359" y="495"/>
      <point x="417" y="454"/>
      <point x="417" y="370" type="curve" smooth="yes"/>
      <point x="417" y="285"/>
      <point x="359" y="244"/>
      <point x="303" y="244" type="curve" smooth="yes"/>
    </contour>
    <contour>
      <point x="549" y="179" type="line"/>
      <point x="472" y="255" type="line"/>
      <point x="418" y="201" type="line"/>
      <point x="495" y="124" type="line"/>
    </contour>
    <contour>
      <point x="187" y="541" type="line"/>
      <point x="110" y="618" type="line"/>
      <point x="56" y="563" type="line"/>
      <point x="133" y="487" type="line"/>
    </contour>
    <contour>
      <point x="549" y="561" type="line"/>
      <point x="495" y="616" type="line"/>
      <point x="418" y="539" type="line"/>
      <point x="472" y="485" type="line"/>
    </contour>
  </outline>
</glyph>
<glyph name="yen" format="1">
  <advance width="600"/>
  <unicode hex="00A5"/>
  <outline>
    <contour>
      <point x="300" y="406" type="line"/>
      <point x="347" y="297" type="line"/>
      <point x="515" y="700" type="line"/>
      <point x="408" y="700" type="line"/>
    </contour>
    <contour>
      <point x="85" y="700" type="line"/>
      <point x="256" y="292" type="line"/>
      <point x="300" y="406" type="line"/>
      <point x="192" y="700" type="line"/>
    </contour>
    <contour>
      <point x="347" y="0" type="line"/>
      <point x="347" y="406" type="line"/>
      <point x="254" y="406" type="line"/>
      <point x="254" y="0" type="line"/>
    </contour>
    <contour>
      <point x="116" y="269" type="line"/>
      <point x="485" y="269" type="line"/>
      <point x="485" y="351" type="line"/>
      <point x="116" y="351" type="line"/>
    </contour>
    <contour>
      <point x="116" y="129" type="line"/>
      <point x="485" y="129" type="line"/>
      <point x="485" y="211" type="line"/>
      <point x="116" y="211" type="line"/>
    </contour>
  </outline>
</glyph>
<glyph name="brokenbar" format="1">
  <advance width="600"/>
  <unicode hex="00A6"/>
  <outline>
    <contour>
      <point x="255" y="213" type="line"/>
      <point x="255" y="-130" type="line"/>
      <point x="340" y="-130" type="line"/>
      <point x="340" y="213" type="line"/>
    </contour>
    <contour>
      <point x="340" y="453" type="line"/>
      <point x="340" y="800" type="line"/>
      <point x="255" y="800" type="line"/>
      <point x="255" y="453" type="line"/>
    </contour>
  </outline>
</glyph>
<glyph name="section" format="1">
  <advance width="600"/>
  <unicode hex="00A7"/>
  <outline>
    <contour>
      <point x="289" y="453" type="line"/>
      <point x="206" y="441"/>
      <point x="96" y="406"/>
      <point x="96" y="311" type="curve" smooth="yes"/>
      <point x="96" y="190"/>
      <point x="227" y="162"/>
      <point x="291" y="144" type="curve" smooth="yes"/>
      <point x="350" y="127"/>
      <point x="426" y="116"/>
      <point x="426" y="54" type="curve" smooth="yes"/>
      <point x="426" y="-4"/>
      <point x="364" y="-33"/>
      <point x="291" y="-33" type="curve" smooth="yes"/>
      <point x="214" y="-33"/>
      <point x="163" y="-3"/>
      <point x="142" y="43" type="curve"/>
      <point x="63" y="2" type="line"/>
      <point x="104" y="-80"/>
      <point x="192" y="-109"/>
      <point x="291" y="-109" type="curve" smooth="yes"/>
      <point x="402" y="-109"/>
      <point x="515" y="-64"/>
      <point x="515" y="54" type="curve" smooth="yes"/>
      <point x="515" y="186"/>
      <point x="354" y="208"/>
      <point x="297" y="224" type="curve" smooth="yes"/>
      <point x="250" y="237"/>
      <point x="187" y="255"/>
      <point x="187" y="311" type="curve" smooth="yes"/>
      <point x="187" y="367"/>
      <point x="258" y="396"/>
      <point x="310" y="396" type="curve" smooth="yes"/>
      <point x="319" y="396"/>
      <point x="327" y="395"/>
      <point x="336" y="394" type="curve"/>
    </contour>
    <contour>
      <point x="375" y="134" type="line"/>
      <point x="453" y="153"/>
      <point x="515" y="200"/>
      <point x="515" y="288" type="curve" smooth="yes"/>
      <point x="515" y="420"/>
      <point x="354" y="452"/>
      <point x="297" y="468" type="curve" smooth="yes"/>
      <point x="250" y="481"/>
      <point x="192" y="499"/>
      <point x="192" y="555" type="curve" smooth="yes"/>
      <point x="192" y="611"/>
      <point x="268" y="630"/>
      <point x="310" y="630" type="curve" smooth="yes"/>
      <point x="369" y="630"/>
      <point x="416" y="603"/>
      <point x="437" y="554" type="curve"/>
      <point x="516" y="595" type="line"/>
      <point x="475" y="678"/>
      <point x="392" y="706"/>
      <point x="310" y="706" type="curve" smooth="yes"/>
      <point x="222" y="706"/>
      <point x="106" y="670"/>
      <point x="106" y="555" type="curve" smooth="yes"/>
      <point x="106" y="434"/>
      <point x="227" y="406"/>
      <point x="291" y="388" type="curve" smooth="yes"/>
      <point x="350" y="371"/>
      <point x="426" y="350"/>
      <point x="426" y="288" type="curve" smooth="yes"/>
      <point x="426" y="237"/>
      <point x="379" y="189"/>
      <point x="318" y="182" type="curve"/>
    </contour>
  </outline>
</glyph>
<glyph name="dieresis" format="1">
  <advance width="600"/>
  <unicode hex="00A8"/>
  <outline>
    <contour>
      <point x="234" y="635"/>
      <point x="262" y="663"/>
      <point x="262" y="698" type="curve" smooth="yes"/>
      <point x="262" y="734"/>
      <point x="234" y="762"/>
      <point x="199" y="762" type="curve" smooth="yes"/>
      <point x="164" y="762"/>
      <point x="136" y="734"/>
      <point x="136" y="698" type="curve" smooth="yes"/>
      <point x="136" y="663"/>
      <point x="164" y="635"/>
      <point x="199" y="635" type="curve" smooth="yes"/>
    </contour>
    <contour>
      <point x="437" y="635"/>
      <point x="465" y="663"/>
      <point x="465" y="698" type="curve" smooth="yes"/>
      <point x="465" y="734"/>
      <point x="437" y="762"/>
      <point x="402" y="762" type="curve" smooth="yes"/>
      <point x="367" y="762"/>
      <point x="339" y="734"/>
      <point x="339" y="698" type="curve" smooth="yes"/>
      <point x="339" y="663"/>
      <point x="367" y="635"/>
      <point x="402" y="635" type="curve" smooth="yes"/>
    </contour>
  </outline>
</glyph>
<glyph name="copyright" format="1">
  <advance width="600"/>
  <unicode hex="00A9"/>
  <outline>
    <contour>
      <point x="433" y="50"/>
      <point x="561" y="121"/>
      <point x="561" y="349" type="curve" smooth="yes"/>
      <point x="561" y="576"/>
      <point x="433" y="647"/>
      <point x="297" y="647" type="curve" smooth="yes"/>
      <point x="160" y="647"/>
      <point x="32" y="576"/>
      <point x="32" y="349" type="curve" smooth="yes"/>
      <point x="32" y="121"/>
      <point x="160" y="50"/>
      <point x="297" y="50" type="curve" smooth="yes"/>
    </contour>
    <contour>
      <point x="180" y="111"/>
      <point x="95" y="168"/>
      <point x="95" y="349" type="curve" smooth="yes"/>
      <point x="95" y="529"/>
      <point x="180" y="586"/>
      <point x="297" y="586" type="curve" smooth="yes"/>
      <point x="413" y="586"/>
      <point x="497" y="529"/>
      <point x="497" y="349" type="curve" smooth="yes"/>
      <point x="497" y="168"/>
      <point x="413" y="111"/>
      <point x="297" y="111" type="curve" smooth="yes"/>
    </contour>
    <contour>
      <point x="376" y="287" type="line"/>
      <point x="359" y="256"/>
      <point x="334" y="243"/>
      <point x="307" y="243" type="curve" smooth="yes"/>
      <point x="258" y="243"/>
      <point x="222" y="273"/>
      <point x="222" y="348" type="curve" smooth="yes"/>
      <point x="222" y="424"/>
      <point x="258" y="453"/>
      <point x="307" y="453" type="curve" smooth="yes"/>
      <point x="333" y="453"/>
      <point x="357" y="441"/>
      <point x="375" y="404" type="curve"/>
      <point x="426" y="431" type="line"/>
      <point x="398" y="484"/>
      <point x="357" y="502"/>
      <point x="309" y="502" type="curve" smooth="yes"/>
      <point x="228" y="502"/>
      <point x="164" y="462"/>
      <point x="164" y="348" type="curve" smooth="yes"/>
      <point x="164" y="235"/>
      <point x="228" y="194"/>
      <point x="309" y="194" type="curve" smooth="yes"/>
      <point x="357" y="194"/>
      <point x="399" y="212"/>
      <point x="427" y="261" type="curve"/>
    </contour>
  </outline>
</glyph>
<glyph name="registered" format="1">
  <advance width="600"/>
  <unicode hex="00AE"/>
  <outline>
    <contour>
      <point x="433" y="170"/>
      <point x="561" y="241"/>
      <point x="561" y="439" type="curve" smooth="yes"/>
      <point x="561" y="636"/>
      <point x="433" y="707"/>
      <point x="297" y="707" type="curve" smooth="yes"/>
      <point x="160" y="707"/>
      <point x="32" y="636"/>
      <point x="32" y="439" type="curve" smooth="yes"/>
      <point x="32" y="241"/>
      <point x="160" y="170"/>
      <point x="297" y="170" type="curve" smooth="yes"/>
    </contour>
    <contour>
      <point x="177" y="231"/>
      <point x="95" y="288"/>
      <point x="95" y="439" type="curve" smooth="yes"/>
      <point x="95" y="589"/>
      <point x="180" y="646"/>
      <point x="297" y="646" type="curve" smooth="yes"/>
      <point x="413" y="646"/>
      <point x="497" y="589"/>
      <point x="497" y="439" type="curve" smooth="yes"/>
      <point x="497" y="288"/>
      <point x="413" y="231"/>
      <point x="297" y="231" type="curve" smooth="yes"/>
    </contour>
    <contour>
      <point x="311" y="540" type="line" smooth="yes"/>
      <point x="347" y="540"/>
      <point x="357" y="523"/>
      <point x="357" y="499" type="curve" smooth="yes"/>
      <point x="357" y="467"/>
      <point x="347" y="456"/>
      <point x="311" y="456" type="curve" smooth="yes"/>
      <point x="253" y="456" type="line"/>
      <point x="253" y="540" type="line"/>
    </contour>
    <contour>
      <point x="352" y="410"/>
      <point x="410" y="424"/>
      <point x="410" y="499" type="curve" smooth="yes"/>
      <point x="410" y="573"/>
      <point x="352" y="585"/>
      <point x="305" y="585" type="curve" smooth="yes"/>
      <point x="201" y="585" type="line"/>
      <point x="201" y="294" type="line"/>
      <point x="253" y="294" type="line"/>
      <point x="253" y="410" type="line"/>
      <point x="305" y="410" type="line" smooth="yes"/>
    </contour>
    <contour>
      <point x="410" y="294" type="line"/>
      <point x="347" y="423" type="line"/>
      <point x="291" y="423" type="line"/>
      <point x="351" y="294" type="line"/>
    </contour>
  </outline>
</glyph>
<glyph name="macron" format="1">
  <advance width="600"/>
  <unicode hex="00AF"/>
  <outline>
    <contour>
      <point x="140" y="659" type="line"/>
      <point x="459" y="659" type="line"/>
      <point x="459" y="739" type="line"/>
      <point x="140" y="739" type="line"/>
    </contour>
  </outline>
</glyph>
<glyph name="degree" format="1">
  <advance width="600"/>
  <unicode hex="00B0"/>
  <outline>
    <contour>
      <point x="335" y="500"/>
      <point x="399" y="564"/>
      <point x="399" y="644" type="curve" smooth="yes"/>
      <point x="399" y="723"/>
      <point x="335" y="787"/>
      <point x="256" y="787" type="curve" smooth="yes"/>
      <point x="176" y="787"/>
      <point x="112" y="723"/>
      <point x="112" y="644" type="curve" smooth="yes"/>
      <point x="112" y="564"/>
      <point x="176" y="500"/>
      <point x="256" y="500" type="curve" smooth="yes"/>
    </contour>
    <contour>
      <point x="214" y="570"/>
      <point x="182" y="602"/>
      <point x="182" y="644" type="curve" smooth="yes"/>
      <point x="182" y="685"/>
      <point x="214" y="717"/>
      <point x="256" y="717" type="curve" smooth="yes"/>
      <point x="297" y="717"/>
      <point x="329" y="685"/>
      <point x="329" y="644" type="curve" smooth="yes"/>
      <point x="329" y="602"/>
      <point x="297" y="570"/>
      <point x="256" y="570" type="curve" smooth="yes"/>
    </contour>
  </outline>
</glyph>
<glyph name="plusminus" format="1">
  <advance width="600"/>
  <unicode hex="00B1"/>
  <outline>
    <contour>
      <point x="99" y="342" type="line"/>
      <point x="506" y="342" type="line"/>
      <point x="506" y="404" type="line"/>
      <point x="99" y="404" type="line"/>
    </contour>
    <contour>
      <point x="344" y="219" type="line"/>
      <point x="344" y="526" type="line"/>
      <point x="262" y="526" type="line"/>
      <point x="262" y="219" type="line"/>
    </contour>
    <contour>
      <point x="99" y="94" type="line"/>
      <point x="506" y="94" type="line"/>
      <point x="506" y="156" type="line"/>
      <point x="99" y="156" type="line"/>
    </contour>
  </outline>
</glyph>
<glyph name="acute" format="1">
  <advance width="600"/>
  <unicode hex="00B4"/>
  <outline>
    <contour>
      <point x="284" y="609" type="line"/>
      <point x="427" y="749" type="line"/>
      <point x="292" y="749" type="line"/>
      <point x="190" y="609" type="line"/>
    </contour>
  </outline>
</glyph>
<glyph name="paragraph" format="1">
  <advance width="600"/>
  <unicode hex="00B6"/>
  <outline>
    <contour>
      <point x="257" y="320" type="line"/>
      <point x="257" y="-120" type="line"/>
      <point x="340" y="-120" type="line"/>
      <point x="340" y="700" type="line"/>
      <point x="254" y="700" type="line" smooth="yes"/>
      <point x="160" y="700"/>
      <point x="46" y="645"/>
      <point x="46" y="514" type="curve" smooth="yes"/>
      <point x="46" y="373"/>
      <point x="160" y="320"/>
      <point x="234" y="320" type="curve" smooth="yes"/>
    </contour>
    <contour>
      <point x="509" y="-120" type="line"/>
      <point x="509" y="700" type="line"/>
      <point x="426" y="700" type="line"/>
      <point x="426" y="-120" type="line"/>
    </contour>
    <contour>
      <point x="287" y="618" type="line"/>
      <point x="477" y="618" type="line"/>
      <point x="477" y="700" type="line"/>
      <point x="287" y="700" type="line"/>
    </contour>
  </outline>
</glyph>
<glyph name="cedilla" format="1">
  <advance width="600"/>
  <unicode hex="00B8"/>
  <outline>
    <contour>
      <point x="214" y="-77" type="line"/>
      <point x="280" y="-95" type="line"/>
      <point x="316" y="0" type="line"/>
      <point x="240" y="0" type="line"/>
    </contour>
    <contour>
      <point x="290" y="-79"/>
      <point x="323" y="-80"/>
      <point x="322" y="-103" type="curve" smooth="yes"/>
      <point x="321" y="-130"/>
      <point x="270" y="-140"/>
      <point x="199" y="-128" type="curve"/>
      <point x="173" y="-192" type="line"/>
      <point x="279" y="-219"/>
      <point x="417" y="-186"/>
      <point x="419" y="-95" type="curve" smooth="yes"/>
      <point x="420" y="-27"/>
      <point x="318" y="-24"/>
      <point x="296" y="-50" type="curve"/>
      <point x="280" y="-95" type="line"/>
    </contour>
  </outline>
</glyph>
<glyph name="AE" format="1">
  <advance width="600"/>
  <unicode hex="00C6"/>
  <outline>
    <contour>
      <point x="378" y="0" type="line"/>
      <point x="378" y="700" type="line"/>
      <point x="285" y="700" type="line"/>
      <point x="285" y="0" type="line"/>
    </contour>
    <contour>
      <point x="347" y="0" type="line"/>
      <point x="579" y="0" type="line"/>
      <point x="579" y="82" type="line"/>
      <point x="347" y="82" type="line"/>
    </contour>
    <contour>
      <point x="347" y="303" type="line"/>
      <point x="525" y="303" type="line"/>
      <point x="525" y="385" type="line"/>
      <point x="347" y="385" type="line"/>
    </contour>
    <contour>
      <point x="347" y="618" type="line"/>
      <point x="579" y="618" type="line"/>
      <point x="579" y="700" type="line"/>
      <point x="347" y="700" type="line"/>
    </contour>
    <contour>
      <point x="-1" y="0" type="line"/>
      <point x="94" y="0" type="line"/>
      <point x="308" y="700" type="line"/>
      <point x="213" y="700" type="line"/>
    </contour>
    <contour>
      <point x="208" y="618" type="line"/>
      <point x="325" y="618" type="line"/>
      <point x="343" y="700" type="line"/>
      <point x="225" y="700" type="line"/>
    </contour>
    <contour>
      <point x="123" y="224" type="line"/>
      <point x="335" y="224" type="line"/>
      <point x="352" y="306" type="line"/>
      <point x="140" y="306" type="line"/>
    </contour>
  </outline>
</glyph>
<glyph name="Thorn" format="1">
  <advance width="600"/>
  <unicode hex="00DE"/>
  <outline>
    <contour>
      <point x="194" y="700" type="line"/>
      <point x="101" y="700" type="line"/>
      <point x="101" y="0" type="line"/>
      <point x="194" y="0" type="line"/>
    </contour>
    <contour>
      <point x="170" y="128" type="line"/>
      <point x="282" y="128" type="line" smooth="yes"/>
      <point x="366" y="128"/>
      <point x="510" y="146"/>
      <point x="510" y="367" type="curve" smooth="yes"/>
      <point x="510" y="578"/>
      <point x="366" y="588"/>
      <point x="282" y="588" type="curve" smooth="yes"/>
      <point x="168" y="588" type="line"/>
      <point x="168" y="506" type="line"/>
      <point x="295" y="506" type="line"/>
      <point x="360" y="506"/>
      <point x="416" y="501"/>
      <point x="416" y="367" type="curve" smooth="yes"/>
      <point x="416" y="223"/>
      <point x="360" y="210"/>
      <point x="295" y="210" type="curve" smooth="yes"/>
      <point x="170" y="210" type="line"/>
    </contour>
  </outline>
</glyph>
<glyph name="germandbls" format="1">
  <advance width="600"/>
  <unicode hex="00DF"/>
  <outline>
    <contour>
      <point x="163" y="0" type="line"/>
      <point x="163" y="502" type="line"/>
      <point x="70" y="523" type="line"/>
      <point x="70" y="0" type="line"/>
    </contour>
    <contour>
      <point x="223" y="2" type="line"/>
      <point x="256" y="-7"/>
      <point x="291" y="-11"/>
      <point x="323" y="-11" type="curve" smooth="yes"/>
      <point x="444" y="-11"/>
      <point x="559" y="48"/>
      <point x="559" y="197" type="curve"/>
      <point x="461" y="197" type="line"/>
      <point x="461" y="102"/>
      <point x="403" y="72"/>
      <point x="323" y="72" type="curve" smooth="yes"/>
      <point x="296" y="72"/>
      <point x="270" y="77"/>
      <point x="247" y="86" type="curve"/>
    </contour>
    <contour>
      <point x="509" y="550" type="line"/>
      <point x="509" y="668"/>
      <point x="405" y="726"/>
      <point x="297" y="726" type="curve" smooth="yes"/>
      <point x="189" y="726"/>
      <point x="70" y="662"/>
      <point x="70" y="523" type="curve"/>
      <point x="163" y="502" type="line"/>
      <point x="163" y="608"/>
      <point x="233" y="643"/>
      <point x="297" y="643" type="curve" smooth="yes"/>
      <point x="354" y="643"/>
      <point x="410" y="624"/>
      <point x="410" y="550" type="curve"/>
    </contour>
    <contour>
      <point x="410" y="550" type="line"/>
      <point x="410" y="463"/>
      <point x="309" y="474"/>
      <point x="309" y="391" type="curve" smooth="yes"/>
      <point x="309" y="308"/>
      <point x="461" y="302"/>
      <point x="461" y="197" type="curve"/>
      <point x="559" y="197" type="line"/>
      <point x="559" y="350"/>
      <point x="405" y="354"/>
      <point x="405" y="391" type="curve" smooth="yes"/>
      <point x="405" y="428"/>
      <point x="509" y="436"/>
      <point x="509" y="550" type="curve"/>
    </contour>
  </outline>
</glyph>
<glyph name="ae" format="1">
  <advance width="600"/>
  <unicode hex="00E6"/>
  <outline>
    <contour>
      <point x="307" y="-11"/>
      <point x="311" y="76"/>
      <point x="311" y="76" type="curve"/>
      <point x="270" y="142" type="line"/>
      <point x="263" y="108"/>
      <point x="256" y="71"/>
      <point x="195" y="71" type="curve"/>
      <point x="143" y="71"/>
      <point x="105" y="93"/>
      <point x="105" y="153" type="curve"/>
      <point x="12" y="153" type="line"/>
      <point x="12" y="41"/>
      <point x="79" y="-11"/>
      <point x="178" y="-11" type="curve"/>
    </contour>
    <contour>
      <point x="105" y="153" type="line"/>
      <point x="105" y="220"/>
      <point x="161" y="224"/>
      <point x="232" y="224" type="curve"/>
      <point x="198" y="308" type="line"/>
      <point x="101" y="308"/>
      <point x="12" y="264"/>
      <point x="12" y="153" type="curve"/>
    </contour>
    <contour>
      <point x="320" y="224" type="line"/>
      <point x="320" y="308" type="line"/>
      <point x="198" y="308" type="line"/>
      <point x="232" y="224" type="line"/>
    </contour>
    <contour>
      <point x="339" y="355" type="line"/>
      <point x="339" y="446"/>
      <point x="281" y="512"/>
      <point x="195" y="512" type="curve"/>
      <point x="120" y="512"/>
      <point x="59" y="486"/>
      <point x="15" y="452" type="curve"/>
      <point x="76" y="388" type="line"/>
      <point x="100" y="410"/>
      <point x="143" y="429"/>
      <point x="190" y="429" type="curve"/>
      <point x="233" y="429"/>
      <point x="256" y="400"/>
      <point x="256" y="341" type="curve"/>
    </contour>
    <contour>
      <point x="349" y="209" type="line"/>
      <point x="349" y="361" type="line"/>
      <point x="256" y="341" type="line"/>
      <point x="256" y="209" type="line"/>
    </contour>
    <contour>
      <point x="500" y="139" type="line"/>
      <point x="489" y="109"/>
      <point x="470" y="72"/>
      <point x="434" y="72" type="curve" smooth="yes"/>
      <point x="380" y="72"/>
      <point x="351" y="112"/>
      <point x="351" y="251" type="curve" smooth="yes"/>
      <point x="351" y="394"/>
      <point x="369" y="429"/>
      <point x="432" y="429" type="curve" smooth="yes"/>
      <point x="496" y="429"/>
      <point x="496" y="345"/>
      <point x="496" y="306" type="curve"/>
      <point x="590" y="224" type="line"/>
      <point x="600" y="394"/>
      <point x="560" y="512"/>
      <point x="439" y="512" type="curve" smooth="yes"/>
      <point x="322" y="512"/>
      <point x="254" y="444"/>
      <point x="254" y="247" type="curve" smooth="yes"/>
      <point x="254" y="54"/>
      <point x="318" y="-11"/>
      <point x="432" y="-11" type="curve" smooth="yes"/>
      <point x="496" y="-11"/>
      <point x="554" y="21"/>
      <point x="584" y="102" type="curve"/>
    </contour>
    <contour>
      <point x="347" y="224" type="line"/>
      <point x="590" y="224" type="line"/>
      <point x="530" y="306" type="line"/>
      <point x="347" y="306" type="line"/>
    </contour>
  </outline>
</glyph>
<glyph name="eth" format="1">
  <advance width="600"/>
  <unicode hex="00F0"/>
  <outline>
    <contour>
      <point x="209" y="72"/>
      <point x="168" y="164"/>
      <point x="168" y="251" type="curve" smooth="yes"/>
      <point x="168" y="340"/>
      <point x="194" y="429"/>
      <point x="277" y="429" type="curve" smooth="yes"/>
      <point x="341" y="429"/>
      <point x="401" y="398"/>
      <point x="431" y="336" type="curve"/>
      <point x="475" y="373" type="line"/>
      <point x="427" y="463"/>
      <point x="371" y="512"/>
      <point x="280" y="512" type="curve" smooth="yes"/>
      <point x="143" y="512"/>
      <point x="70" y="404"/>
      <point x="70" y="251" type="curve" smooth="yes"/>
      <point x="70" y="100"/>
      <point x="155" y="-11"/>
      <point x="292" y="-11" type="curve"/>
      <point x="292" y="72" type="line"/>
    </contour>
    <contour>
      <point x="211" y="659" type="line"/>
      <point x="360" y="631"/>
      <point x="429" y="516"/>
      <point x="429" y="328" type="curve" smooth="yes"/>
      <point x="429" y="139"/>
      <point x="385" y="72"/>
      <point x="292" y="72" type="curve"/>
      <point x="292" y="-11" type="line"/>
      <point x="439" y="-11"/>
      <point x="527" y="75"/>
      <point x="527" y="328" type="curve" smooth="yes"/>
      <point x="527" y="576"/>
      <point x="414" y="684"/>
      <point x="245" y="721" type="curve"/>
    </contour>
    <contour>
      <point x="234" y="599" type="line"/>
      <point x="278" y="558" type="line"/>
      <point x="454" y="670" type="line"/>
      <point x="420" y="720" type="line"/>
    </contour>
  </outline>
</glyph>
<glyph name="divide" format="1">
  <advance width="600"/>
  <unicode hex="00F7"/>
  <outline>
    <contour>
      <point x="109" y="263" type="line"/>
      <point x="496" y="263" type="line"/>
      <point x="496" y="345" type="line"/>
      <point x="109" y="345" type="line"/>
    </contour>
    <contour>
      <point x="330" y="90"/>
      <point x="355" y="116"/>
      <point x="355" y="148" type="curve" smooth="yes"/>
      <point x="355" y="179"/>
      <point x="330" y="205"/>
      <point x="298" y="205" type="curve" smooth="yes"/>
      <point x="266" y="205"/>
      <point x="241" y="179"/>
      <point x="241" y="148" type="curve" smooth="yes"/>
      <point x="241" y="116"/>
      <point x="266" y="90"/>
      <point x="298" y="90" type="curve" smooth="yes"/>
    </contour>
    <contour>
      <point x="330" y="406"/>
      <point x="355" y="432"/>
      <point x="355" y="464" type="curve" smooth="yes"/>
      <point x="355" y="495"/>
      <point x="330" y="521"/>
      <point x="298" y="521" type="curve" smooth="yes"/>
      <point x="266" y="521"/>
      <point x="241" y="495"/>
      <point x="241" y="464" type="curve" smooth="yes"/>
      <point x="241" y="432"/>
      <point x="266" y="406"/>
      <point x="298" y="406" type="curve" smooth="yes"/>
    </contour>
  </outline>
</glyph>
<glyph name="aogonek" format="1">
  <advance width="600"/>
  <unicode hex="0105"/>
  <outline>
    <contour>
      <point x="529" y="0" type="line"/>
      <point x="570" y="37" type="line"/>
      <point x="543" y="64" type="line"/>
      <point x="433" y="-14" type="line"/>
    </contour>
    <component base="a"/>
    <component base="ogonekcomb" xOffset="169"/>
  </outline>
</glyph>
<glyph name="idotless" format="1">
  <advance width="600"/>
  <unicode hex="0131"/>
  <outline>
    <contour>
      <point x="111" y="418" type="line"/>
      <point x="254" y="418" type="line"/>
      <point x="254" y="500" type="line"/>
      <point x="111" y="500" type="line"/>
    </contour>
    <contour>
      <point x="342" y="56" type="line"/>
      <point x="342" y="500" type="line"/>
      <point x="249" y="500" type="line"/>
      <point x="249" y="31" type="line"/>
    </contour>
    <contour>
      <point x="249" y="0" type="line"/>
      <point x="471" y="0" type="line"/>
      <point x="471" y="82" type="line"/>
      <point x="249" y="82" type="line"/>
    </contour>
  </outline>
</glyph>
<glyph name="Lslash" format="1">
  <advance width="600"/>
  <unicode hex="0141"/>
  <outline>
    <contour>
      <point x="57" y="173" type="line"/>
      <point x="329" y="445" type="line"/>
      <point x="329" y="536" type="line"/>
      <point x="57" y="263" type="line"/>
    </contour>
    <component base="L"/>
  </outline>
</glyph>
<glyph name="lslash" format="1">
  <advance width="600"/>
  <unicode hex="0142"/>
  <outline>
    <contour>
      <point x="157" y="173" type="line"/>
      <point x="393" y="409" type="line"/>
      <point x="393" y="500" type="line"/>
      <point x="157" y="263" type="line"/>
    </contour>
    <component base="l"/>
  </outline>
</glyph>
<glyph name="Eng" format="1">
  <advance width="600"/>
  <unicode hex="014A"/>
  <outline>
    <contour>
      <point x="521" y="20" type="line"/>
      <point x="202" y="700" type="line"/>
      <point x="111" y="700" type="line"/>
      <point x="430" y="0" type="line"/>
    </contour>
    <contour>
      <point x="436" y="-192"/>
      <point x="521" y="-130"/>
      <point x="521" y="-12" type="curve"/>
      <point x="521" y="28" type="line"/>
      <point x="428" y="8" type="line"/>
      <point x="428" y="-78"/>
      <point x="401" y="-109"/>
      <point x="313" y="-109" type="curve"/>
      <point x="272" y="-109"/>
      <point x="233" y="-101"/>
      <point x="217" y="-95" type="curve"/>
      <point x="196" y="-178" type="line"/>
      <point x="220" y="-184"/>
      <point x="268" y="-192"/>
      <point x="320" y="-192" type="curve"/>
    </contour>
    <contour>
      <point x="174" y="0" type="line"/>
      <point x="174" y="700" type="line"/>
      <point x="81" y="700" type="line"/>
      <point x="81" y="0" type="line"/>
    </contour>
    <contour>
      <point x="521" y="0" type="line"/>
      <point x="521" y="700" type="line"/>
      <point x="428" y="700" type="line"/>
      <point x="428" y="0" type="line"/>
    </contour>
  </outline>
</glyph>
<glyph name="eng" format="1">
  <advance width="600"/>
  <unicode hex="014B"/>
  <outline>
    <contour>
      <point x="225" y="-183" type="line"/>
      <point x="249" y="-189"/>
      <point x="277" y="-192"/>
      <point x="309" y="-192" type="curve"/>
      <point x="425" y="-192"/>
      <point x="510" y="-130"/>
      <point x="510" y="-12" type="curve"/>
      <point x="510" y="22" type="line"/>
      <point x="417" y="8" type="line"/>
      <point x="417" y="-78"/>
      <point x="390" y="-109"/>
      <point x="302" y="-109" type="curve"/>
      <point x="281" y="-109"/>
      <point x="262" y="-106"/>
      <point x="246" y="-100" type="curve"/>
    </contour>
    <component base="n"/>
  </outline>
</glyph>
<glyph name="OE" format="1">
  <advance width="600"/>
  <unicode hex="0152"/>
  <outline>
    <contour>
      <point x="253" y="-11"/>
      <point x="286" y="-3"/>
      <point x="315" y="19" type="curve"/>
      <point x="269" y="98" type="line"/>
      <point x="254" y="80"/>
      <point x="235" y="72"/>
      <point x="217" y="72" type="curve" smooth="yes"/>
      <point x="164" y="72"/>
      <point x="120" y="124"/>
      <point x="120" y="348" type="curve" smooth="yes"/>
      <point x="120" y="571"/>
      <point x="164" y="623"/>
      <point x="217" y="623" type="curve" smooth="yes"/>
      <point x="236" y="623"/>
      <point x="254" y="616"/>
      <point x="269" y="596" type="curve"/>
      <point x="324" y="669" type="line"/>
      <point x="293" y="696"/>
      <point x="256" y="706"/>
      <point x="217" y="706" type="curve" smooth="yes"/>
      <point x="110" y="706"/>
      <point x="22" y="635"/>
      <point x="22" y="348" type="curve" smooth="yes"/>
      <point x="22" y="60"/>
      <point x="110" y="-11"/>
      <point x="217" y="-11" type="curve" smooth="yes"/>
    </contour>
    <contour>
      <point x="572" y="0" type="line"/>
      <point x="572" y="82" type="line"/>
      <point x="273" y="82" type="line"/>
      <point x="273" y="0" type="line"/>
    </contour>
    <contour>
      <point x="362" y="0" type="line"/>
      <point x="362" y="700" type="line"/>
      <point x="269" y="700" type="line"/>
      <point x="269" y="0" type="line"/>
    </contour>
    <contour>
      <point x="548" y="303" type="line"/>
      <point x="548" y="385" type="line"/>
      <point x="353" y="385" type="line"/>
      <point x="353" y="303" type="line"/>
    </contour>
    <contour>
      <point x="572" y="618" type="line"/>
      <point x="572" y="700" type="line"/>
      <point x="263" y="700" type="line"/>
      <point x="263" y="618" type="line"/>
    </contour>
  </outline>
</glyph>
<glyph name="oe" format="1">
  <advance width="600"/>
  <unicode hex="0153"/>
  <outline>
    <contour>
      <point x="301" y="-11"/>
      <point x="349" y="108"/>
      <point x="349" y="251" type="curve" smooth="yes"/>
      <point x="349" y="393"/>
      <point x="301" y="512"/>
      <point x="185" y="512" type="curve" smooth="yes"/>
      <point x="88" y="512"/>
      <point x="20" y="443"/>
      <point x="20" y="251" type="curve" smooth="yes"/>
      <point x="20" y="58"/>
      <point x="88" y="-11"/>
      <point x="185" y="-11" type="curve" smooth="yes"/>
    </contour>
    <contour>
      <point x="142" y="72"/>
      <point x="118" y="117"/>
      <point x="118" y="251" type="curve" smooth="yes"/>
      <point x="118" y="384"/>
      <point x="142" y="429"/>
      <point x="185" y="429" type="curve" smooth="yes"/>
      <point x="227" y="429"/>
      <point x="251" y="384"/>
      <point x="251" y="251" type="curve" smooth="yes"/>
      <point x="251" y="117"/>
      <point x="227" y="72"/>
      <point x="185" y="72" type="curve" smooth="yes"/>
    </contour>
    <contour>
      <point x="487" y="-11"/>
      <point x="542" y="21"/>
      <point x="572" y="102" type="curve"/>
      <point x="488" y="139" type="line"/>
      <point x="477" y="109"/>
      <point x="461" y="72"/>
      <point x="425" y="72" type="curve" smooth="yes"/>
      <point x="371" y="72"/>
      <point x="349" y="112"/>
      <point x="349" y="251" type="curve" smooth="yes"/>
      <point x="349" y="394"/>
      <point x="370" y="429"/>
      <point x="423" y="429" type="curve" smooth="yes"/>
      <point x="487" y="429"/>
      <point x="484" y="345"/>
      <point x="484" y="306" type="curve"/>
      <point x="578" y="224" type="line"/>
      <point x="588" y="394"/>
      <point x="551" y="512"/>
      <point x="430" y="512" type="curve" smooth="yes"/>
      <point x="293" y="512"/>
      <point x="252" y="394"/>
      <point x="252" y="247" type="curve" smooth="yes"/>
      <point x="252" y="104"/>
      <point x="289" y="-11"/>
      <point x="423" y="-11" type="curve" smooth="yes"/>
    </contour>
    <contour>
      <point x="578" y="224" type="line"/>
      <point x="518" y="306" type="line"/>
      <point x="345" y="306" type="line"/>
      <point x="345" y="224" type="line"/>
    </contour>
  </outline>
</glyph>
<glyph name="uogonek" format="1">
  <advance width="600"/>
  <unicode hex="0173"/>
  <outline>
    <contour>
      <point x="446" y="0" type="line"/>
      <point x="494" y="-12" type="line"/>
      <point x="494" y="23" type="line"/>
      <point x="461" y="6" type="line"/>
    </contour>
    <component base="u"/>
    <component base="ogonekcomb" xOffset="154"/>
  </outline>
</glyph>
<glyph name="circumflex" format="1">
  <advance width="600"/>
  <unicode hex="02C6"/>
  <outline>
    <contour>
      <point x="349" y="750" type="line"/>
      <point x="250" y="750" type="line"/>
      <point x="132" y="619" type="line"/>
      <point x="239" y="619" type="line"/>
      <point x="300" y="693" type="line"/>
      <point x="360" y="619" type="line"/>
      <point x="467" y="619" type="line"/>
    </contour>
  </outline>
</glyph>
<glyph name="caron" format="1">
  <advance width="600"/>
  <unicode hex="02C7"/>
  <outline>
    <contour>
      <point x="360" y="750" type="line"/>
      <point x="300" y="676" type="line"/>
      <point x="239" y="750" type="line"/>
      <point x="132" y="750" type="line"/>
      <point x="250" y="619" type="line"/>
      <point x="349" y="619" type="line"/>
      <point x="467" y="750" type="line"/>
    </contour>
  </outline>
</glyph>
<glyph name="breve" format="1">
  <advance width="600"/>
  <unicode hex="02D8"/>
  <outline>
    <contour>
      <point x="341" y="740" type="line"/>
      <point x="341" y="729"/>
      <point x="341" y="675"/>
      <point x="300" y="675" type="curve" smooth="yes"/>
      <point x="260" y="675"/>
      <point x="259" y="729"/>
      <point x="259" y="740" type="curve"/>
      <point x="177" y="740" type="line"/>
      <point x="177" y="678"/>
      <point x="212" y="616"/>
      <point x="299" y="616" type="curve" smooth="yes"/>
      <point x="386" y="616"/>
      <point x="423" y="678"/>
      <point x="423" y="740" type="curve"/>
    </contour>
  </outline>
</glyph>
<glyph name="dotaccent" format="1">
  <advance width="600"/>
  <unicode hex="02D9"/>
  <outline>
    <contour>
      <point x="329" y="637"/>
      <point x="357" y="665"/>
      <point x="357" y="700" type="curve" smooth="yes"/>
      <point x="357" y="736"/>
      <point x="329" y="764"/>
      <point x="294" y="764" type="curve" smooth="yes"/>
      <point x="259" y="764"/>
      <point x="231" y="736"/>
      <point x="231" y="700" type="curve" smooth="yes"/>
      <point x="231" y="665"/>
      <point x="259" y="637"/>
      <point x="294" y="637" type="curve" smooth="yes"/>
    </contour>
  </outline>
</glyph>
<glyph name="ring" format="1">
  <advance width="600"/>
  <unicode hex="02DA"/>
  <outline>
    <contour>
      <point x="350" y="566"/>
      <point x="394" y="608"/>
      <point x="394" y="663" type="curve" smooth="yes"/>
      <point x="394" y="716"/>
      <point x="350" y="759"/>
      <point x="298" y="759" type="curve" smooth="yes"/>
      <point x="244" y="759"/>
      <point x="200" y="716"/>
      <point x="200" y="663" type="curve" smooth="yes"/>
      <point x="200" y="608"/>
      <point x="244" y="566"/>
      <point x="298" y="566" type="curve" smooth="yes"/>
    </contour>
    <contour>
      <point x="276" y="624"/>
      <point x="259" y="640"/>
      <point x="259" y="663" type="curve" smooth="yes"/>
      <point x="259" y="684"/>
      <point x="276" y="700"/>
      <point x="298" y="700" type="curve" smooth="yes"/>
      <point x="319" y="700"/>
      <point x="336" y="684"/>
      <point x="336" y="663" type="curve" smooth="yes"/>
      <point x="336" y="640"/>
      <point x="319" y="624"/>
      <point x="298" y="624" type="curve" smooth="yes"/>
    </contour>
  </outline>
</glyph>
<glyph name="ogonek" format="1">
  <advance width="600"/>
  <unicode hex="02DB"/>
  <outline>
    <contour>
      <point x="292" y="0" type="line" smooth="yes"/>
      <point x="292" y="0"/>
      <point x="196" y="-35"/>
      <point x="196" y="-110" type="curve" smooth="yes"/>
      <point x="196" y="-210"/>
      <point x="330" y="-213"/>
      <point x="405" y="-190" type="curve"/>
      <point x="377" y="-119" type="line"/>
      <point x="357" y="-124"/>
      <point x="296" y="-134"/>
      <point x="296" y="-89" type="curve" smooth="yes"/>
      <point x="296" y="-40"/>
      <point x="360" y="0"/>
      <point x="360" y="0" type="curve" smooth="yes"/>
    </contour>
  </outline>
</glyph>
<glyph name="tilde" format="1">
  <advance width="600"/>
  <unicode hex="02DC"/>
  <outline>
    <contour>
      <point x="108" y="696"/>
      <point x="155" y="754"/>
      <point x="222" y="754" type="curve" smooth="yes"/>
      <point x="292" y="754"/>
      <point x="323" y="703"/>
      <point x="362" y="703" type="curve" smooth="yes"/>
      <point x="401" y="703"/>
      <point x="433" y="745"/>
      <point x="433" y="745" type="curve"/>
      <point x="486" y="697" type="line"/>
      <point x="480" y="689"/>
      <point x="430" y="632"/>
      <point x="363" y="632" type="curve" smooth="yes"/>
      <point x="293" y="632"/>
      <point x="261" y="682"/>
      <point x="222" y="682" type="curve" smooth="yes"/>
      <point x="183" y="682"/>
      <point x="157" y="640"/>
      <point x="157" y="640" type="curve"/>
      <point x="104" y="688" type="line"/>
    </contour>
  </outline>
</glyph>
<glyph name="hungarumlaut" format="1">
  <advance width="600"/>
  <unicode hex="02DD"/>
  <outline>
    <contour>
      <point x="249" y="609" type="line"/>
      <point x="333" y="749" type="line"/>
      <point x="228" y="749" type="line"/>
      <point x="170" y="609" type="line"/>
    </contour>
    <contour>
      <point x="378" y="609" type="line"/>
      <point x="500" y="749" type="line"/>
      <point x="389" y="749" type="line"/>
      <point x="304" y="609" type="line"/>
    </contour>
  </outline>
</glyph>
<glyph name="strokeshortcomb" format="1">
  <advance width="600"/>
  <unicode hex="0335"/>
  <outline>
    <contour>
      <point x="148" y="324" type="line"/>
      <point x="446" y="324" type="line"/>
      <point x="446" y="384" type="line"/>
      <point x="148" y="384" type="line"/>
    </contour>
  </outline>
</glyph>
<glyph name="strokelongcomb" format="1">
  <advance width="600"/>
  <unicode hex="0336"/>
  <outline>
    <contour>
      <point x="78" y="324" type="line"/>
      <point x="520" y="324" type="line"/>
      <point x="520" y="384" type="line"/>
      <point x="78" y="384" type="line"/>
    </contour>
  </outline>
</glyph>
<glyph name="slashshortcomb" format="1">
  <advance width="600"/>
  <unicode hex="0337"/>
  <outline>
    <contour>
      <point x="438" y="534" type="line"/>
      <point x="54" y="-33" type="line"/>
      <point x="134" y="-33" type="line"/>
      <point x="518" y="534" type="line"/>
    </contour>
  </outline>
</glyph>
<glyph name="slashlongcomb" format="1">
  <advance width="600"/>
  <unicode hex="0338"/>
  <outline>
    <contour>
      <point x="492" y="727" type="line"/>
      <point x="24" y="-33" type="line"/>
      <point x="104" y="-33" type="line"/>
      <point x="572" y="727" type="line"/>
    </contour>
  </outline>
</glyph>
<glyph name="endash" format="1">
  <advance width="600"/>
  <unicode hex="2013"/>
  <outline>
    <contour>
      <point x="105" y="263" type="line"/>
      <point x="485" y="263" type="line"/>
      <point x="485" y="345" type="line"/>
      <point x="105" y="345" type="line"/>
    </contour>
  </outline>
</glyph>
<glyph name="emdash" format="1">
  <advance width="600"/>
  <unicode hex="2014"/>
  <outline>
    <contour>
      <point x="26" y="263" type="line"/>
      <point x="572" y="263" type="line"/>
      <point x="572" y="345" type="line"/>
      <point x="26" y="345" type="line"/>
    </contour>
  </outline>
</glyph>
<glyph name="quoteleft" format="1">
  <advance width="600"/>
  <unicode hex="2018"/>
  <outline>
    <contour>
      <point x="259" y="673"/>
      <point x="229" y="643"/>
      <point x="229" y="605" type="curve" smooth="yes"/>
      <point x="229" y="568"/>
      <point x="259" y="538"/>
      <point x="297" y="538" type="curve" smooth="yes"/>
      <point x="335" y="538"/>
      <point x="365" y="568"/>
      <point x="365" y="605" type="curve" smooth="yes"/>
      <point x="365" y="643"/>
      <point x="335" y="673"/>
      <point x="297" y="673" type="curve" smooth="yes"/>
    </contour>
    <contour>
      <point x="347" y="751" type="line"/>
      <point x="293" y="774" type="line"/>
      <point x="234" y="631" type="line"/>
      <point x="312" y="640" type="line"/>
    </contour>
  </outline>
</glyph>
<glyph name="quoteright" format="1">
  <advance width="600"/>
  <unicode hex="2019"/>
  <outline>
    <contour>
      <point x="347" y="639"/>
      <point x="377" y="669"/>
      <point x="377" y="707" type="curve" smooth="yes"/>
      <point x="377" y="744"/>
      <point x="347" y="774"/>
      <point x="309" y="774" type="curve" smooth="yes"/>
      <point x="271" y="774"/>
      <point x="241" y="744"/>
      <point x="241" y="707" type="curve" smooth="yes"/>
      <point x="241" y="669"/>
      <point x="271" y="639"/>
      <point x="309" y="639" type="curve" smooth="yes"/>
    </contour>
    <contour>
      <point x="259" y="561" type="line"/>
      <point x="313" y="538" type="line"/>
      <point x="372" y="681" type="line"/>
      <point x="294" y="672" type="line"/>
    </contour>
  </outline>
</glyph>
<glyph name="quotedblleft" format="1">
  <advance width="600"/>
  <unicode hex="201C"/>
  <outline>
    <contour>
      <point x="259" y="641" type="line"/>
      <point x="294" y="752" type="line"/>
      <point x="240" y="775" type="line"/>
      <point x="181" y="632" type="line"/>
    </contour>
    <contour>
      <point x="466" y="539"/>
      <point x="496" y="569"/>
      <point x="496" y="606" type="curve" smooth="yes"/>
      <point x="496" y="644"/>
      <point x="466" y="674"/>
      <point x="428" y="674" type="curve" smooth="yes"/>
      <point x="390" y="674"/>
      <point x="360" y="644"/>
      <point x="360" y="606" type="curve" smooth="yes"/>
      <point x="360" y="569"/>
      <point x="390" y="539"/>
      <point x="428" y="539" type="curve" smooth="yes"/>
    </contour>
    <contour>
      <point x="443" y="641" type="line"/>
      <point x="478" y="752" type="line"/>
      <point x="424" y="775" type="line"/>
      <point x="365" y="632" type="line"/>
    </contour>
    <contour>
      <point x="282" y="539"/>
      <point x="312" y="569"/>
      <point x="312" y="606" type="curve" smooth="yes"/>
      <point x="312" y="644"/>
      <point x="282" y="674"/>
      <point x="244" y="674" type="curve" smooth="yes"/>
      <point x="206" y="674"/>
      <point x="176" y="644"/>
      <point x="176" y="606" type="curve" smooth="yes"/>
      <point x="176" y="569"/>
      <point x="206" y="539"/>
      <point x="244" y="539" type="curve" smooth="yes"/>
    </contour>
  </outline>
</glyph>
<glyph name="quotedblright" format="1">
  <advance width="600"/>
  <unicode hex="201D"/>
  <outline>
    <contour>
      <point x="407" y="639"/>
      <point x="437" y="669"/>
      <point x="437" y="707" type="curve" smooth="yes"/>
      <point x="437" y="744"/>
      <point x="407" y="774"/>
      <point x="369" y="774" type="curve" smooth="yes"/>
      <point x="331" y="774"/>
      <point x="301" y="744"/>
      <point x="301" y="707" type="curve" smooth="yes"/>
      <point x="301" y="669"/>
      <point x="331" y="639"/>
      <point x="369" y="639" type="curve" smooth="yes"/>
    </contour>
    <contour>
      <point x="242" y="681" type="line"/>
      <point x="164" y="672" type="line"/>
      <point x="129" y="561" type="line"/>
      <point x="183" y="538" type="line"/>
    </contour>
    <contour>
      <point x="217" y="639"/>
      <point x="247" y="669"/>
      <point x="247" y="707" type="curve" smooth="yes"/>
      <point x="247" y="744"/>
      <point x="217" y="774"/>
      <point x="179" y="774" type="curve" smooth="yes"/>
      <point x="141" y="774"/>
      <point x="111" y="744"/>
      <point x="111" y="707" type="curve" smooth="yes"/>
      <point x="111" y="669"/>
      <point x="141" y="639"/>
      <point x="179" y="639" type="curve" smooth="yes"/>
    </contour>
    <contour>
      <point x="432" y="681" type="line"/>
      <point x="354" y="672" type="line"/>
      <point x="319" y="561" type="line"/>
      <point x="373" y="538" type="line"/>
    </contour>
  </outline>
</glyph>
<glyph name="dagger" format="1">
  <advance width="600"/>
  <unicode hex="2020"/>
  <outline>
    <contour>
      <point x="345" y="0" type="line"/>
      <point x="345" y="680" type="line"/>
      <point x="252" y="680" type="line"/>
      <point x="252" y="0" type="line"/>
    </contour>
    <contour>
      <point x="117" y="418" type="line"/>
      <point x="482" y="418" type="line"/>
      <point x="482" y="500" type="line"/>
      <point x="117" y="500" type="line"/>
    </contour>
  </outline>
</glyph>
<glyph name="bullet" format="1">
  <advance width="600"/>
  <unicode hex="2022"/>
  <outline>
    <contour>
      <point x="365" y="211"/>
      <point x="420" y="266"/>
      <point x="420" y="335" type="curve" smooth="yes"/>
      <point x="420" y="405"/>
      <point x="365" y="460"/>
      <point x="296" y="460" type="curve" smooth="yes"/>
      <point x="227" y="460"/>
      <point x="172" y="405"/>
      <point x="172" y="335" type="curve" smooth="yes"/>
      <point x="172" y="266"/>
      <point x="227" y="211"/>
      <point x="296" y="211" type="curve" smooth="yes"/>
    </contour>
  </outline>
</glyph>
<glyph name="perthousand" format="1">
  <advance width="600"/>
  <unicode hex="2030"/>
  <outline>
    <contour>
      <point x="565" y="543" type="line"/>
      <point x="529" y="591" type="line"/>
      <point x="14" y="272" type="line"/>
      <point x="50" y="224" type="line"/>
    </contour>
    <contour>
      <point x="248" y="3"/>
      <point x="297" y="32"/>
      <point x="297" y="111" type="curve" smooth="yes"/>
      <point x="297" y="188"/>
      <point x="248" y="217"/>
      <point x="193" y="217" type="curve" smooth="yes"/>
      <point x="138" y="217"/>
      <point x="90" y="188"/>
      <point x="90" y="111" type="curve" smooth="yes"/>
      <point x="90" y="32"/>
      <point x="138" y="3"/>
      <point x="193" y="3" type="curve" smooth="yes"/>
    </contour>
    <contour>
      <point x="166" y="40"/>
      <point x="145" y="54"/>
      <point x="145" y="112" type="curve" smooth="yes"/>
      <point x="145" y="164"/>
      <point x="166" y="180"/>
      <point x="193" y="180" type="curve" smooth="yes"/>
      <point x="219" y="180"/>
      <point x="242" y="164"/>
      <point x="242" y="112" type="curve" smooth="yes"/>
      <point x="242" y="54"/>
      <point x="219" y="40"/>
      <point x="193" y="40" type="curve" smooth="yes"/>
    </contour>
    <contour>
      <point x="498" y="3"/>
      <point x="547" y="32"/>
      <point x="547" y="111" type="curve" smooth="yes"/>
      <point x="547" y="188"/>
      <point x="498" y="217"/>
      <point x="443" y="217" type="curve" smooth="yes"/>
      <point x="388" y="217"/>
      <point x="340" y="188"/>
      <point x="340" y="111" type="curve" smooth="yes"/>
      <point x="340" y="32"/>
      <point x="388" y="3"/>
      <point x="443" y="3" type="curve" smooth="yes"/>
    </contour>
    <contour>
      <point x="416" y="40"/>
      <point x="395" y="54"/>
      <point x="395" y="112" type="curve" smooth="yes"/>
      <point x="395" y="164"/>
      <point x="416" y="180"/>
      <point x="443" y="180" type="curve" smooth="yes"/>
      <point x="469" y="180"/>
      <point x="492" y="164"/>
      <point x="492" y="112" type="curve" smooth="yes"/>
      <point x="492" y="54"/>
      <point x="469" y="40"/>
      <point x="443" y="40" type="curve" smooth="yes"/>
    </contour>
    <contour>
      <point x="249" y="469"/>
      <point x="298" y="498"/>
      <point x="298" y="577" type="curve" smooth="yes"/>
      <point x="298" y="654"/>
      <point x="249" y="683"/>
      <point x="194" y="683" type="curve" smooth="yes"/>
      <point x="139" y="683"/>
      <point x="91" y="654"/>
      <point x="91" y="577" type="curve" smooth="yes"/>
      <point x="91" y="498"/>
      <point x="139" y="469"/>
      <point x="194" y="469" type="curve" smooth="yes"/>
    </contour>
    <contour>
      <point x="167" y="506"/>
      <point x="146" y="520"/>
      <point x="146" y="578" type="curve" smooth="yes"/>
      <point x="146" y="630"/>
      <point x="167" y="646"/>
      <point x="194" y="646" type="curve" smooth="yes"/>
      <point x="220" y="646"/>
      <point x="243" y="630"/>
      <point x="243" y="578" type="curve" smooth="yes"/>
      <point x="243" y="520"/>
      <point x="220" y="506"/>
      <point x="194" y="506" type="curve" smooth="yes"/>
    </contour>
  </outline>
</glyph>
<glyph name="guilsinglleft" format="1">
  <advance width="600"/>
  <unicode hex="2039"/>
  <outline>
    <contour>
      <point x="230" y="252" type="line"/>
      <point x="427" y="487" type="line"/>
      <point x="384" y="530" type="line"/>
      <point x="162" y="332" type="line"/>
    </contour>
    <contour>
      <point x="384" y="57" type="line"/>
      <point x="427" y="100" type="line"/>
      <point x="230" y="336" type="line"/>
      <point x="162" y="255" type="line"/>
    </contour>
    <contour>
      <point x="162" y="255" type="line"/>
      <point x="213" y="255" type="line"/>
      <point x="213" y="332" type="line"/>
      <point x="162" y="332" type="line"/>
    </contour>
  </outline>
</glyph>
<glyph name="fraction" format="1">
  <advance width="600"/>
  <unicode hex="2044"/>
  <outline>
    <contour>
      <point x="486" y="800" type="line"/>
      <point x="47" y="-142" type="line"/>
      <point x="107" y="-142" type="line"/>
      <point x="546" y="800" type="line"/>
    </contour>
  </outline>
</glyph>
<glyph name="euro" format="1">
  <advance width="600"/>
  <unicode hex="20AC"/>
  <outline>
    <contour>
      <point x="432" y="-11"/>
      <point x="502" y="21"/>
      <point x="550" y="113" type="curve"/>
      <point x="474" y="158" type="line"/>
      <point x="444" y="94"/>
      <point x="395" y="72"/>
      <point x="360" y="72" type="curve" smooth="yes"/>
      <point x="267" y="72"/>
      <point x="203" y="129"/>
      <point x="203" y="348" type="curve" smooth="yes"/>
      <point x="203" y="566"/>
      <point x="267" y="623"/>
      <point x="360" y="623" type="curve" smooth="yes"/>
      <point x="394" y="623"/>
      <point x="442" y="602"/>
      <point x="472" y="540" type="curve"/>
      <point x="548" y="585" type="line"/>
      <point x="500" y="675"/>
      <point x="431" y="706"/>
      <point x="360" y="706" type="curve" smooth="yes"/>
      <point x="213" y="706"/>
      <point x="105" y="630"/>
      <point x="105" y="348" type="curve" smooth="yes"/>
      <point x="105" y="65"/>
      <point x="213" y="-11"/>
      <point x="360" y="-11" type="curve" smooth="yes"/>
    </contour>
    <contour>
      <point x="415" y="221" type="line"/>
      <point x="425" y="303" type="line"/>
      <point x="26" y="303" type="line"/>
      <point x="16" y="221" type="line"/>
    </contour>
    <contour>
      <point x="438" y="396" type="line"/>
      <point x="448" y="478" type="line"/>
      <point x="39" y="478" type="line"/>
      <point x="29" y="396" type="line"/>
    </contour>
  </outline>
</glyph>
<glyph name="trademark" format="1">
  <advance width="600"/>
  <unicode hex="2122"/>
  <outline>
    <contour>
      <point x="178" y="426" type="line"/>
      <point x="178" y="700" type="line"/>
      <point x="123" y="700" type="line"/>
      <point x="123" y="426" type="line"/>
    </contour>
    <contour>
      <point x="33" y="649" type="line"/>
      <point x="269" y="649" type="line"/>
      <point x="269" y="700" type="line"/>
      <point x="33" y="700" type="line"/>
    </contour>
    <contour>
      <point x="347" y="426" type="line"/>
      <point x="358" y="700" type="line"/>
      <point x="311" y="700" type="line"/>
      <point x="292" y="426" type="line"/>
    </contour>
    <contour>
      <point x="561" y="426" type="line"/>
      <point x="540" y="700" type="line"/>
      <point x="494" y="700" type="line"/>
      <point x="503" y="426" type="line"/>
    </contour>
    <contour>
      <point x="425" y="532" type="line"/>
      <point x="408" y="462" type="line"/>
      <point x="454" y="462" type="line"/>
      <point x="520" y="700" type="line"/>
      <point x="476" y="700" type="line"/>
    </contour>
    <contour>
      <point x="331" y="700" type="line"/>
      <point x="399" y="462" type="line"/>
      <point x="445" y="462" type="line"/>
      <point x="428" y="532" type="line"/>
      <point x="377" y="700" type="line"/>
    </contour>
  </outline>
</glyph>
<glyph name="upArrow" format="1">
  <advance width="600"/>
  <unicode hex="2191"/>
  <outline>
    <contour>
      <point x="328" y="83" type="line"/>
      <point x="328" y="365" type="line"/>
      <point x="257" y="365" type="line" smooth="yes"/>
      <point x="257" y="83" type="line"/>
    </contour>
    <contour>
      <point x="292" y="461" type="line"/>
      <point x="200" y="345" type="line"/>
      <point x="385" y="345" type="line"/>
    </contour>
  </outline>
</glyph>
<glyph name="emptyset" format="1">
  <advance width="600"/>
  <unicode hex="2205"/>
  <outline>
    <contour>
      <point x="463" y="-2"/>
      <point x="593" y="128"/>
      <point x="593" y="288" type="curve" smooth="yes"/>
      <point x="593" y="448"/>
      <point x="463" y="578"/>
      <point x="303" y="578" type="curve" smooth="yes"/>
      <point x="142" y="578"/>
      <point x="12" y="448"/>
      <point x="12" y="288" type="curve" smooth="yes"/>
      <point x="12" y="128"/>
      <point x="142" y="-2"/>
      <point x="303" y="-2" type="curve" smooth="yes"/>
    </contour>
    <contour>
      <point x="185" y="76"/>
      <point x="90" y="171"/>
      <point x="90" y="288" type="curve" smooth="yes"/>
      <point x="90" y="405"/>
      <point x="185" y="500"/>
      <point x="303" y="500" type="curve" smooth="yes"/>
      <point x="420" y="500"/>
      <point x="515" y="405"/>
      <point x="515" y="288" type="curve" smooth="yes"/>
      <point x="515" y="171"/>
      <point x="420" y="76"/>
      <point x="303" y="76" type="curve" smooth="yes"/>
    </contour>
    <contour>
      <point x="11" y="54" type="line"/>
      <point x="56" y="9" type="line"/>
      <point x="574" y="527" type="line"/>
      <point x="529" y="572" type="line"/>
    </contour>
  </outline>
</glyph>
<glyph name="minus" format="1">
  <advance width="600"/>
  <unicode hex="2212"/>
  <outline>
    <contour>
      <point x="109" y="263" type="line"/>
      <point x="496" y="263" type="line"/>
      <point x="496" y="345" type="line"/>
      <point x="109" y="345" type="line"/>
    </contour>
  </outline>
</glyph>
<glyph name="radical" format="1">
  <advance width="600"/>
  <unicode hex="221A"/>
  <outline>
    <contour>
      <point x="291" y="0" type="line"/>
      <point x="486" y="869" type="line"/>
      <point x="385" y="869" type="line"/>
      <point x="190" y="0" type="line"/>
    </contour>
    <contour>
      <point x="279" y="0" type="line"/>
      <point x="279" y="82" type="line"/>
      <point x="111" y="82" type="line"/>
      <point x="111" y="0" type="line"/>
    </contour>
    <contour>
      <point x="200" y="0" type="line"/>
      <point x="116" y="374" type="line"/>
      <point x="15" y="374" type="line"/>
      <point x="99" y="0" type="line"/>
    </contour>
    <contour>
      <point x="600" y="787" type="line"/>
      <point x="600" y="869" type="line"/>
      <point x="447" y="869" type="line"/>
      <point x="447" y="787" type="line"/>
    </contour>
  </outline>
</glyph>
<glyph name="infinity" format="1">
  <advance width="600"/>
  <unicode hex="221E"/>
  <outline>
    <contour>
      <point x="302" y="151"/>
      <point x="330" y="309"/>
      <point x="330" y="309" type="curve" smooth="yes"/>
      <point x="330" y="309"/>
      <point x="302" y="465"/>
      <point x="185" y="475" type="curve" smooth="yes"/>
      <point x="101" y="482"/>
      <point x="37" y="413"/>
      <point x="37" y="309" type="curve" smooth="yes"/>
      <point x="37" y="203"/>
      <point x="101" y="134"/>
      <point x="185" y="141" type="curve" smooth="yes"/>
    </contour>
    <contour>
      <point x="129" y="214"/>
      <point x="109" y="254"/>
      <point x="109" y="309" type="curve" smooth="yes"/>
      <point x="109" y="362"/>
      <point x="129" y="402"/>
      <point x="183" y="402" type="curve" smooth="yes"/>
      <point x="242" y="402"/>
      <point x="266" y="309"/>
      <point x="266" y="309" type="curve" smooth="yes"/>
      <point x="266" y="309"/>
      <point x="242" y="214"/>
      <point x="183" y="214" type="curve" smooth="yes"/>
    </contour>
    <contour>
      <point x="495" y="134"/>
      <point x="559" y="203"/>
      <point x="559" y="309" type="curve" smooth="yes"/>
      <point x="559" y="413"/>
      <point x="495" y="482"/>
      <point x="411" y="475" type="curve" smooth="yes"/>
      <point x="294" y="465"/>
      <point x="266" y="309"/>
      <point x="266" y="309" type="curve" smooth="yes"/>
      <point x="266" y="309"/>
      <point x="294" y="151"/>
      <point x="411" y="141" type="curve" smooth="yes"/>
    </contour>
    <contour>
      <point x="354" y="214"/>
      <point x="330" y="309"/>
      <point x="330" y="309" type="curve" smooth="yes"/>
      <point x="330" y="309"/>
      <point x="354" y="402"/>
      <point x="413" y="402" type="curve" smooth="yes"/>
      <point x="467" y="402"/>
      <point x="487" y="362"/>
      <point x="487" y="309" type="curve" smooth="yes"/>
      <point x="487" y="254"/>
      <point x="467" y="214"/>
      <point x="413" y="214" type="curve" smooth="yes"/>
    </contour>
  </outline>
</glyph>
<glyph name="approxequal" format="1">
  <advance width="600"/>
  <unicode hex="2248"/>
  <outline>
    <contour>
      <point x="74" y="424"/>
      <point x="153" y="471"/>
      <point x="212" y="471" type="curve" smooth="yes"/>
      <point x="305" y="471"/>
      <point x="315" y="403"/>
      <point x="367" y="403" type="curve" smooth="yes"/>
      <point x="419" y="403"/>
      <point x="474" y="439"/>
      <point x="474" y="439" type="curve"/>
      <point x="494" y="405" type="line"/>
      <point x="486" y="395"/>
      <point x="432" y="349"/>
      <point x="373" y="349" type="curve" smooth="yes"/>
      <point x="280" y="349"/>
      <point x="267" y="415"/>
      <point x="215" y="415" type="curve" smooth="yes"/>
      <point x="163" y="415"/>
      <point x="89" y="370"/>
      <point x="89" y="370" type="curve"/>
      <point x="69" y="413" type="line"/>
    </contour>
    <contour>
      <point x="74" y="226"/>
      <point x="153" y="273"/>
      <point x="212" y="273" type="curve" smooth="yes"/>
      <point x="305" y="273"/>
      <point x="315" y="205"/>
      <point x="367" y="205" type="curve" smooth="yes"/>
      <point x="419" y="205"/>
      <point x="474" y="241"/>
      <point x="474" y="241" type="curve"/>
      <point x="494" y="207" type="line"/>
      <point x="486" y="197"/>
      <point x="432" y="151"/>
      <point x="373" y="151" type="curve" smooth="yes"/>
      <point x="280" y="151"/>
      <point x="267" y="217"/>
      <point x="215" y="217" type="curve" smooth="yes"/>
      <point x="163" y="217"/>
      <point x="89" y="172"/>
      <point x="89" y="172" type="curve"/>
      <point x="69" y="215" type="line"/>
    </contour>
  </outline>
</glyph>
<glyph name="notequal" format="1">
  <advance width="600"/>
  <unicode hex="2260"/>
  <outline>
    <contour>
      <point x="233" y="89" type="line"/>
      <point x="444" y="526" type="line"/>
      <point x="355" y="526" type="line"/>
      <point x="145" y="89" type="line"/>
    </contour>
    <component base="equal"/>
  </outline>
</glyph>
<glyph name="greaterequal" format="1">
  <advance width="600"/>
  <unicode hex="2265"/>
  <outline>
    <contour>
      <point x="165" y="613" type="line"/>
      <point x="122" y="550" type="line"/>
      <point x="403" y="373" type="line"/>
      <point x="471" y="453" type="line"/>
    </contour>
    <contour>
      <point x="420" y="453" type="line"/>
      <point x="420" y="366" type="line"/>
      <point x="471" y="366" type="line"/>
      <point x="471" y="453" type="line"/>
    </contour>
    <contour>
      <point x="403" y="446" type="line"/>
      <point x="122" y="269" type="line"/>
      <point x="165" y="206" type="line"/>
      <point x="471" y="366" type="line"/>
    </contour>
    <contour>
      <point x="127" y="169" type="line"/>
      <point x="127" y="87" type="line"/>
      <point x="471" y="87" type="line"/>
      <point x="471" y="169" type="line"/>
    </contour>
  </outline>
</glyph>
<glyph name="lozenge" format="1">
  <advance width="600"/>
  <unicode hex="25CA"/>
  <outline>
    <contour>
      <point x="254" y="672" type="line"/>
      <point x="461" y="331" type="line"/>
      <point x="554" y="350" type="line"/>
      <point x="344" y="700" type="line"/>
    </contour>
    <contour>
      <point x="257" y="700" type="line"/>
      <point x="257" y="649" type="line"/>
      <point x="344" y="649" type="line"/>
      <point x="344" y="700" type="line"/>
    </contour>
    <contour>
      <point x="47" y="350" type="line"/>
      <point x="140" y="331" type="line"/>
      <point x="347" y="672" type="line"/>
      <point x="257" y="700" type="line"/>
    </contour>
    <contour>
      <point x="554" y="350" type="line"/>
      <point x="461" y="369" type="line"/>
      <point x="254" y="28" type="line"/>
      <point x="344" y="0" type="line"/>
    </contour>
    <contour>
      <point x="344" y="51" type="line"/>
      <point x="257" y="51" type="line"/>
      <point x="257" y="0" type="line"/>
      <point x="344" y="0" type="line"/>
    </contour>
    <contour>
      <point x="347" y="28" type="line"/>
      <point x="140" y="369" type="line"/>
      <point x="47" y="350" type="line"/>
      <point x="257" y="0" type="line"/>
    </contour>
  </outline>
</glyph>
<glyph name="G.ss01" format="1">
  <advance width="600"/>
  <outline>
    <contour>
      <point x="464" y="-11"/>
      <point x="549" y="90"/>
      <point x="549" y="303" type="curve"/>
      <point x="462" y="333" type="line"/>
      <point x="462" y="125"/>
      <point x="410" y="72"/>
      <point x="317" y="72" type="curve" smooth="yes"/>
      <point x="224" y="72"/>
      <point x="155" y="125"/>
      <point x="155" y="348" type="curve" smooth="yes"/>
      <point x="155" y="571"/>
      <point x="219" y="623"/>
      <point x="312" y="623" type="curve" smooth="yes"/>
      <point x="366" y="623"/>
      <point x="414" y="602"/>
      <point x="444" y="540" type="curve"/>
      <point x="530" y="585" type="line"/>
      <point x="482" y="675"/>
      <point x="403" y="706"/>
      <point x="312" y="706" type="curve" smooth="yes"/>
      <point x="165" y="706"/>
      <point x="57" y="635"/>
      <point x="57" y="348" type="curve" smooth="yes"/>
      <point x="57" y="60"/>
      <point x="170" y="-11"/>
      <point x="317" y="-11" type="curve" smooth="yes"/>
    </contour>
    <contour>
      <point x="549" y="303" type="line"/>
      <point x="549" y="385" type="line"/>
      <point x="321" y="385" type="line"/>
      <point x="321" y="303" type="line"/>
    </contour>
  </outline>
</glyph>
<glyph name="Q.ss01" format="1">
  <advance width="600"/>
  <outline>
    <contour>
      <point x="439" y="-11"/>
      <point x="547" y="60"/>
      <point x="547" y="348" type="curve" smooth="yes"/>
      <point x="547" y="635"/>
      <point x="439" y="706"/>
      <point x="293" y="706" type="curve" smooth="yes"/>
      <point x="146" y="706"/>
      <point x="38" y="635"/>
      <point x="38" y="348" type="curve" smooth="yes"/>
      <point x="38" y="60"/>
      <point x="146" y="-11"/>
      <point x="293" y="-11" type="curve" smooth="yes"/>
    </contour>
    <contour>
      <point x="576" y="-52" type="line"/>
      <point x="568" y="10"/>
      <point x="491" y="103"/>
      <point x="353" y="79" type="curve"/>
      <point x="364" y="-4" type="line"/>
      <point x="431" y="16"/>
      <point x="492" y="-52"/>
      <point x="503" y="-118" type="curve"/>
    </contour>
    <contour>
      <point x="200" y="72"/>
      <point x="136" y="124"/>
      <point x="136" y="348" type="curve" smooth="yes"/>
      <point x="136" y="571"/>
      <point x="200" y="623"/>
      <point x="293" y="623" type="curve" smooth="yes"/>
      <point x="385" y="623"/>
      <point x="449" y="571"/>
      <point x="449" y="348" type="curve" smooth="yes"/>
      <point x="449" y="124"/>
      <point x="385" y="72"/>
      <point x="293" y="72" type="curve" smooth="yes"/>
    </contour>
  </outline>
</glyph>
<glyph name="X.ss01" format="1">
  <advance width="600"/>
  <outline>
    <contour>
      <point x="260" y="371" type="line"/>
      <point x="56" y="0" type="line"/>
      <point x="163" y="0" type="line"/>
      <point x="337" y="332" type="line"/>
    </contour>
    <contour>
      <point x="337" y="332" type="line"/>
      <point x="542" y="700" type="line"/>
      <point x="436" y="700" type="line"/>
      <point x="260" y="371" type="line"/>
    </contour>
    <contour>
      <point x="436" y="0" type="line"/>
      <point x="542" y="0" type="line"/>
      <point x="338" y="371" type="line"/>
      <point x="261" y="332" type="line"/>
    </contour>
    <contour>
      <point x="163" y="700" type="line"/>
      <point x="56" y="700" type="line"/>
      <point x="261" y="332" type="line"/>
      <point x="338" y="371" type="line"/>
    </contour>
  </outline>
</glyph>
<glyph name="a.ss01" format="1">
  <advance width="600"/>
  <outline>
    <contour>
      <point x="500" y="371" type="line"/>
      <point x="500" y="462"/>
      <point x="425" y="512"/>
      <point x="299" y="512" type="curve"/>
      <point x="204" y="512"/>
      <point x="130" y="486"/>
      <point x="96" y="452" type="curve"/>
      <point x="159" y="385" type="line"/>
      <point x="184" y="413"/>
      <point x="227" y="429"/>
      <point x="292" y="429" type="curve"/>
      <point x="370" y="429"/>
      <point x="407" y="410"/>
      <point x="407" y="351" type="curve"/>
    </contour>
    <contour>
      <point x="406" y="-11"/>
      <point x="462" y="76"/>
      <point x="462" y="76" type="curve"/>
      <point x="421" y="142" type="line"/>
      <point x="414" y="108"/>
      <point x="347" y="71"/>
      <point x="286" y="71" type="curve"/>
      <point x="194" y="71"/>
      <point x="159" y="93"/>
      <point x="159" y="153" type="curve"/>
      <point x="66" y="153" type="line"/>
      <point x="66" y="41"/>
      <point x="130" y="-11"/>
      <point x="269" y="-11" type="curve"/>
    </contour>
    <contour>
      <point x="159" y="153" type="line"/>
      <point x="159" y="220"/>
      <point x="187" y="234"/>
      <point x="323" y="234" type="curve"/>
      <point x="289" y="316" type="line"/>
      <point x="137" y="316"/>
      <point x="66" y="264"/>
      <point x="66" y="153" type="curve"/>
    </contour>
    <contour>
      <point x="531" y="-11"/>
      <point x="545" y="-9"/>
      <point x="557" y="-6" type="curve"/>
      <point x="557" y="70" type="line"/>
      <point x="551" y="69"/>
      <point x="546" y="68"/>
      <point x="542" y="68" type="curve"/>
      <point x="510" y="68"/>
      <point x="500" y="84"/>
      <point x="500" y="142" type="curve"/>
      <point x="407" y="122" type="line"/>
      <point x="407" y="36"/>
      <point x="447" y="-11"/>
      <point x="518" y="-11" type="curve"/>
    </contour>
    <contour>
      <point x="471" y="234" type="line"/>
      <point x="471" y="316" type="line"/>
      <point x="289" y="316" type="line"/>
      <point x="323" y="234" type="line"/>
    </contour>
    <contour>
      <point x="500" y="142" type="line"/>
      <point x="500" y="294" type="line"/>
      <point x="407" y="294" type="line"/>
      <point x="407" y="122" type="line"/>
    </contour>
    <contour>
      <point x="500" y="209" type="line"/>
      <point x="500" y="371" type="line"/>
      <point x="407" y="351" type="line"/>
      <point x="407" y="209" type="line"/>
    </contour>
  </outline>
</glyph>
<glyph name="g.ss01" format="1">
  <advance width="600"/>
  <outline>
    <contour>
      <point x="556" y="503" type="line"/>
      <point x="488" y="503"/>
      <point x="425" y="447"/>
      <point x="439" y="367" type="curve"/>
      <point x="514" y="351" type="line"/>
      <point x="510" y="409"/>
      <point x="552" y="412"/>
      <point x="581" y="413" type="curve"/>
    </contour>
    <contour>
      <point x="397" y="149"/>
      <point x="515" y="188"/>
      <point x="515" y="331" type="curve" smooth="yes"/>
      <point x="515" y="473"/>
      <point x="407" y="512"/>
      <point x="301" y="512" type="curve" smooth="yes"/>
      <point x="194" y="512"/>
      <point x="86" y="473"/>
      <point x="86" y="331" type="curve" smooth="yes"/>
      <point x="86" y="188"/>
      <point x="194" y="149"/>
      <point x="301" y="149" type="curve" smooth="yes"/>
    </contour>
    <contour>
      <point x="218" y="231"/>
      <point x="184" y="257"/>
      <point x="184" y="331" type="curve" smooth="yes"/>
      <point x="184" y="404"/>
      <point x="208" y="430"/>
      <point x="301" y="430" type="curve" smooth="yes"/>
      <point x="393" y="430"/>
      <point x="417" y="414"/>
      <point x="417" y="331" type="curve" smooth="yes"/>
      <point x="417" y="257"/>
      <point x="383" y="231"/>
      <point x="301" y="231" type="curve" smooth="yes"/>
    </contour>
    <contour>
      <point x="278" y="-1" type="line"/>
      <point x="288" y="81" type="line"/>
      <point x="264" y="81" type="line" smooth="yes"/>
      <point x="182" y="81"/>
      <point x="205" y="142"/>
      <point x="228" y="170" type="curve"/>
      <point x="185" y="199" type="line"/>
      <point x="160" y="181"/>
      <point x="105" y="151"/>
      <point x="105" y="92" type="curve" smooth="yes"/>
      <point x="105" y="37"/>
      <point x="169" y="-1"/>
      <point x="260" y="-1" type="curve" smooth="yes"/>
    </contour>
    <contour>
      <point x="75" y="-147"/>
      <point x="159" y="-192"/>
      <point x="307" y="-192" type="curve"/>
      <point x="307" y="-114" type="line"/>
      <point x="241" y="-114"/>
      <point x="202" y="-102"/>
      <point x="181" y="-77" type="curve" smooth="yes"/>
      <point x="162" y="-54"/>
      <point x="175" y="-1"/>
      <point x="196" y="17" type="curve"/>
      <point x="145" y="45" type="line"/>
      <point x="120" y="27"/>
      <point x="75" y="-10"/>
      <point x="75" y="-69" type="curve" smooth="yes"/>
    </contour>
    <contour>
      <point x="536" y="46"/>
      <point x="460" y="81"/>
      <point x="356" y="81" type="curve"/>
      <point x="324" y="-1" type="line"/>
      <point x="435" y="-1"/>
      <point x="448" y="-22"/>
      <point x="442" y="-57" type="curve" smooth="yes"/>
      <point x="436" y="-95"/>
      <point x="388" y="-114"/>
      <point x="307" y="-114" type="curve"/>
      <point x="307" y="-192" type="line"/>
      <point x="455" y="-192"/>
      <point x="534" y="-141"/>
      <point x="535" y="-43" type="curve" smooth="yes"/>
    </contour>
    <contour>
      <point x="356" y="81" type="line"/>
      <point x="356" y="81"/>
      <point x="355" y="81"/>
      <point x="355" y="81" type="curve" smooth="yes"/>
      <point x="288" y="81" type="line"/>
      <point x="278" y="-1" type="line"/>
      <point x="324" y="-1" type="line"/>
    </contour>
  </outline>
</glyph>
<glyph name="i.ss01" format="1">
  <advance width="600"/>
  <outline>
    <contour>
      <point x="455" y="-11"/>
      <point x="484" y="-1"/>
      <point x="492" y="0" type="curve"/>
      <point x="492" y="78" type="line"/>
      <point x="481" y="76"/>
      <point x="438" y="66"/>
      <point x="407" y="66" type="curve"/>
      <point x="375" y="66"/>
      <point x="350" y="79"/>
      <point x="350" y="142" type="curve"/>
      <point x="257" y="122" type="line"/>
      <point x="257" y="19"/>
      <point x="321" y="-11"/>
      <point x="388" y="-11" type="curve"/>
    </contour>
    <contour>
      <point x="350" y="142" type="line"/>
      <point x="350" y="500" type="line"/>
      <point x="257" y="500" type="line"/>
      <point x="257" y="122" type="line"/>
    </contour>
    <contour>
      <point x="262" y="418" type="line"/>
      <point x="262" y="500" type="line"/>
      <point x="119" y="500" type="line"/>
      <point x="119" y="418" type="line"/>
    </contour>
    <contour>
      <point x="335" y="629"/>
      <point x="365" y="659"/>
      <point x="365" y="698" type="curve" smooth="yes"/>
      <point x="365" y="737"/>
      <point x="335" y="767"/>
      <point x="296" y="767" type="curve" smooth="yes"/>
      <point x="257" y="767"/>
      <point x="227" y="737"/>
      <point x="227" y="698" type="curve" smooth="yes"/>
      <point x="227" y="659"/>
      <point x="257" y="629"/>
      <point x="296" y="629" type="curve" smooth="yes"/>
    </contour>
  </outline>
</glyph>
<glyph name="l.ss01" format="1">
  <advance width="600"/>
  <outline>
    <contour>
      <point x="333" y="71" type="line"/>
      <point x="333" y="800" type="line"/>
      <point x="240" y="800" type="line"/>
      <point x="240" y="51" type="line"/>
    </contour>
    <contour>
      <point x="467" y="0" type="line"/>
      <point x="467" y="82" type="line"/>
      <point x="240" y="82" type="line"/>
      <point x="240" y="0" type="line"/>
    </contour>
    <contour>
      <point x="245" y="718" type="line"/>
      <point x="245" y="800" type="line"/>
      <point x="98" y="800" type="line"/>
      <point x="98" y="718" type="line"/>
    </contour>
  </outline>
</glyph>
<glyph name="t.ss01" format="1">
  <advance width="600"/>
  <outline>
    <contour>
      <point x="345" y="0" type="line"/>
      <point x="345" y="680" type="line"/>
      <point x="252" y="680" type="line"/>
      <point x="252" y="0" type="line"/>
    </contour>
    <contour>
      <point x="467" y="0" type="line"/>
      <point x="467" y="82" type="line"/>
      <point x="294" y="82" type="line"/>
      <point x="294" y="0" type="line"/>
    </contour>
    <contour>
      <point x="507" y="418" type="line"/>
      <point x="507" y="500" type="line"/>
      <point x="122" y="500" type="line"/>
      <point x="122" y="418" type="line"/>
    </contour>
  </outline>
</glyph>
<glyph name="three.ss01" format="1">
  <advance width="600"/>
  <outline>
    <contour>
      <point x="450" y="-11"/>
      <point x="536" y="84"/>
      <point x="536" y="212" type="curve" smooth="yes"/>
      <point x="536" y="336"/>
      <point x="429" y="417"/>
      <point x="315" y="383" type="curve"/>
      <point x="273" y="315" type="line"/>
      <point x="364" y="352"/>
      <point x="443" y="310"/>
      <point x="443" y="212" type="curve" smooth="yes"/>
      <point x="443" y="127"/>
      <point x="392" y="72"/>
      <point x="305" y="72" type="curve" smooth="yes"/>
      <point x="235" y="72"/>
      <point x="188" y="100"/>
      <point x="160" y="155" type="curve"/>
      <point x="73" y="110" type="line"/>
      <point x="113" y="31"/>
      <point x="191" y="-11"/>
      <point x="308" y="-11" type="curve" smooth="yes"/>
    </contour>
    <contour>
      <point x="404" y="618" type="line"/>
      <point x="208" y="381" type="line"/>
      <point x="273" y="315" type="line"/>
      <point x="514" y="618" type="line"/>
    </contour>
    <contour>
      <point x="514" y="700" type="line"/>
      <point x="103" y="700" type="line"/>
      <point x="103" y="618" type="line"/>
      <point x="514" y="618" type="line"/>
    </contour>
  </outline>
</glyph>
<glyph name="x.ss01" format="1">
  <advance width="600"/>
  <outline>
    <contour>
      <point x="260" y="265" type="line"/>
      <point x="56" y="0" type="line"/>
      <point x="173" y="0" type="line"/>
      <point x="337" y="237" type="line"/>
    </contour>
    <contour>
      <point x="337" y="237" type="line"/>
      <point x="547" y="500" type="line"/>
      <point x="431" y="500" type="line"/>
      <point x="260" y="265" type="line"/>
    </contour>
    <contour>
      <point x="426" y="0" type="line"/>
      <point x="542" y="0" type="line"/>
      <point x="338" y="265" type="line"/>
      <point x="261" y="237" type="line"/>
    </contour>
    <contour>
      <point x="173" y="500" type="line"/>
      <point x="56" y="500" type="line"/>
      <point x="261" y="237" type="line"/>
      <point x="338" y="265" type="line"/>
    </contour>
  </outline>
</glyph>
